<mxfile host="Electron" agent="Mozilla/5.0 (Macintosh; Intel Mac OS X 10_15_7) AppleWebKit/537.36 (KHTML, like Gecko) draw.io/26.2.2 Chrome/134.0.6998.178 Electron/35.1.2 Safari/537.36" version="26.2.2">
  <diagram name="Page-1" id="B8hs3QsVrfTHZzn-K_tb">
    <mxGraphModel dx="1187" dy="921" grid="1" gridSize="10" guides="1" tooltips="1" connect="1" arrows="1" fold="1" page="1" pageScale="1" pageWidth="827" pageHeight="1169" background="none" math="0" shadow="0">
      <root>
        <mxCell id="0" />
        <mxCell id="1" parent="0" />
        <mxCell id="Wm3cj4wfwM-NdLzFGAPV-46" value="" style="rounded=0;whiteSpace=wrap;html=1;fillColor=none;strokeColor=#CCCCCC;" vertex="1" parent="1">
          <mxGeometry x="240" y="1240" width="830" height="470" as="geometry" />
        </mxCell>
        <mxCell id="Wm3cj4wfwM-NdLzFGAPV-45" value="" style="rounded=0;whiteSpace=wrap;html=1;fillColor=none;strokeColor=#CCCCCC;" vertex="1" parent="1">
          <mxGeometry x="240" y="560" width="830" height="470" as="geometry" />
        </mxCell>
        <mxCell id="Wm3cj4wfwM-NdLzFGAPV-1" value="Call Center" style="shape=offPageConnector;whiteSpace=wrap;html=1;size=0.25;fontSize=16;verticalAlign=top;fillColor=#fff2cc;strokeColor=#d6b656;" vertex="1" parent="1">
          <mxGeometry x="279" y="159" width="120" height="160" as="geometry" />
        </mxCell>
        <mxCell id="Wm3cj4wfwM-NdLzFGAPV-2" value="Regulatory Compliance" style="shape=offPageConnector;whiteSpace=wrap;html=1;size=0.25;fontSize=16;verticalAlign=top;fillColor=#ffe6cc;strokeColor=#d79b00;" vertex="1" parent="1">
          <mxGeometry x="419" y="159" width="120" height="160" as="geometry" />
        </mxCell>
        <mxCell id="Wm3cj4wfwM-NdLzFGAPV-3" value="Client Onboarding" style="shape=offPageConnector;whiteSpace=wrap;html=1;size=0.25;fontSize=16;verticalAlign=top;fillColor=#f8cecc;strokeColor=#b85450;" vertex="1" parent="1">
          <mxGeometry x="559" y="159" width="120" height="160" as="geometry" />
        </mxCell>
        <mxCell id="Wm3cj4wfwM-NdLzFGAPV-4" value="Underwriting" style="shape=offPageConnector;whiteSpace=wrap;html=1;size=0.25;fontSize=16;verticalAlign=top;fillColor=#dae8fc;strokeColor=#6c8ebf;" vertex="1" parent="1">
          <mxGeometry x="699" y="159" width="120" height="160" as="geometry" />
        </mxCell>
        <mxCell id="Wm3cj4wfwM-NdLzFGAPV-5" value="Knowledge Management" style="shape=offPageConnector;whiteSpace=wrap;html=1;size=0.25;fontSize=16;verticalAlign=top;fillColor=#e1d5e7;strokeColor=#9673a6;" vertex="1" parent="1">
          <mxGeometry x="839" y="159" width="120" height="160" as="geometry" />
        </mxCell>
        <mxCell id="Wm3cj4wfwM-NdLzFGAPV-6" value="Claims Processing" style="shape=offPageConnector;whiteSpace=wrap;html=1;size=0.25;direction=west;verticalAlign=middle;fontSize=16;spacingTop=-16;fillColor=#fff2cc;strokeColor=#d6b656;" vertex="1" parent="1">
          <mxGeometry x="349" y="289" width="120" height="160" as="geometry" />
        </mxCell>
        <mxCell id="Wm3cj4wfwM-NdLzFGAPV-7" value="Fraud&amp;nbsp;&lt;div&gt;Detection&lt;/div&gt;" style="shape=offPageConnector;whiteSpace=wrap;html=1;size=0.25;direction=west;fontSize=16;spacingTop=-16;fillColor=#ffe6cc;strokeColor=#d79b00;" vertex="1" parent="1">
          <mxGeometry x="489" y="289" width="120" height="160" as="geometry" />
        </mxCell>
        <mxCell id="Wm3cj4wfwM-NdLzFGAPV-8" value="Audit Preparation" style="shape=offPageConnector;whiteSpace=wrap;html=1;size=0.25;direction=west;fontSize=16;spacingTop=-16;fillColor=#f8cecc;strokeColor=#b85450;" vertex="1" parent="1">
          <mxGeometry x="629" y="289" width="120" height="160" as="geometry" />
        </mxCell>
        <mxCell id="Wm3cj4wfwM-NdLzFGAPV-9" value="Document Processing" style="shape=offPageConnector;whiteSpace=wrap;html=1;size=0.25;direction=west;fontSize=16;spacingTop=-16;fillColor=#dae8fc;strokeColor=#6c8ebf;" vertex="1" parent="1">
          <mxGeometry x="769" y="289" width="120" height="160" as="geometry" />
        </mxCell>
        <mxCell id="Wm3cj4wfwM-NdLzFGAPV-10" value="Change Management" style="shape=offPageConnector;whiteSpace=wrap;html=1;size=0.25;direction=west;fontSize=16;spacingTop=-16;fillColor=#e1d5e7;strokeColor=#9673a6;" vertex="1" parent="1">
          <mxGeometry x="909" y="289" width="120" height="160" as="geometry" />
        </mxCell>
        <mxCell id="Wm3cj4wfwM-NdLzFGAPV-11" value="Operational processes in financial services are essential and well-defined - yet remain manual, costly, and ripe for transformation" style="text;align=left;verticalAlign=middle;whiteSpace=wrap;rounded=0;fontSize=16;html=1;spacing=4;spacingTop=0;labelBackgroundColor=none;fontColor=#ffffff;spacingLeft=10;fillColor=#0050ef;strokeColor=#001DBC;" vertex="1" parent="1">
          <mxGeometry x="240" y="50" width="830" height="50" as="geometry" />
        </mxCell>
        <mxCell id="Wm3cj4wfwM-NdLzFGAPV-12" value="Streamline claims intake and resolution processes" style="rounded=0;whiteSpace=wrap;html=1;strokeColor=none;fillColor=#fff2cc;" vertex="1" parent="1">
          <mxGeometry x="349" y="389" width="120" height="60" as="geometry" />
        </mxCell>
        <mxCell id="Wm3cj4wfwM-NdLzFGAPV-13" value="Analyze transactions to detect anomalies" style="rounded=0;whiteSpace=wrap;html=1;strokeColor=none;fillColor=none;" vertex="1" parent="1">
          <mxGeometry x="489" y="389" width="120" height="60" as="geometry" />
        </mxCell>
        <mxCell id="Wm3cj4wfwM-NdLzFGAPV-14" value="Organize logs and documents for audits" style="rounded=0;whiteSpace=wrap;html=1;strokeColor=none;fillColor=#f8cecc;" vertex="1" parent="1">
          <mxGeometry x="629" y="389" width="120" height="60" as="geometry" />
        </mxCell>
        <mxCell id="Wm3cj4wfwM-NdLzFGAPV-15" value="Deploy virtual assistants for customer inquiries" style="rounded=0;whiteSpace=wrap;html=1;fillColor=#fff2cc;strokeColor=none;" vertex="1" parent="1">
          <mxGeometry x="279" y="209" width="120" height="60" as="geometry" />
        </mxCell>
        <mxCell id="Wm3cj4wfwM-NdLzFGAPV-16" value="Monitor changes and generate compliance reports" style="rounded=0;whiteSpace=wrap;html=1;fillColor=#ffe6cc;strokeColor=none;" vertex="1" parent="1">
          <mxGeometry x="419" y="209" width="120" height="60" as="geometry" />
        </mxCell>
        <mxCell id="Wm3cj4wfwM-NdLzFGAPV-17" value="Verify identities and screen data for KYC automatically" style="rounded=0;whiteSpace=wrap;html=1;fillColor=#f8cecc;strokeColor=none;" vertex="1" parent="1">
          <mxGeometry x="559" y="209" width="120" height="60" as="geometry" />
        </mxCell>
        <mxCell id="Wm3cj4wfwM-NdLzFGAPV-18" value="Evaluate borrower data and risk profiles" style="rounded=0;whiteSpace=wrap;html=1;fillColor=#dae8fc;strokeColor=none;" vertex="1" parent="1">
          <mxGeometry x="699" y="209" width="120" height="60" as="geometry" />
        </mxCell>
        <mxCell id="Wm3cj4wfwM-NdLzFGAPV-19" value="Retrieve internal knowledge through queries" style="rounded=0;whiteSpace=wrap;html=1;fillColor=#e1d5e7;strokeColor=none;" vertex="1" parent="1">
          <mxGeometry x="839" y="209" width="120" height="60" as="geometry" />
        </mxCell>
        <mxCell id="Wm3cj4wfwM-NdLzFGAPV-20" value="Automate document review and data extraction" style="rounded=0;whiteSpace=wrap;html=1;strokeColor=none;fillColor=#dae8fc;" vertex="1" parent="1">
          <mxGeometry x="769" y="389" width="120" height="60" as="geometry" />
        </mxCell>
        <mxCell id="Wm3cj4wfwM-NdLzFGAPV-21" value="Draft and distribute updates for internal change" style="rounded=0;whiteSpace=wrap;html=1;strokeColor=none;fillColor=#e1d5e7;" vertex="1" parent="1">
          <mxGeometry x="909" y="389" width="120" height="60" as="geometry" />
        </mxCell>
        <mxCell id="Wm3cj4wfwM-NdLzFGAPV-22" value="&quot;Everything should be made as simple as possible, but not simpler&quot;" style="text;align=left;verticalAlign=middle;whiteSpace=wrap;rounded=0;fontSize=16;html=1;spacing=4;spacingTop=0;labelBackgroundColor=none;fontColor=#ffffff;spacingLeft=10;fillColor=#0050ef;strokeColor=#001DBC;" vertex="1" parent="1">
          <mxGeometry x="240" y="560" width="830" height="50" as="geometry" />
        </mxCell>
        <mxCell id="Wm3cj4wfwM-NdLzFGAPV-24" value="" style="html=1;shape=mxgraph.infographic.bannerHalfFold;dx=40;dx2=20;notch=15;fillColor=#10739E;strokeColor=none;align=left;verticalAlign=top;fontColor=#ffffff;fontSize=14;fontStyle=1;spacingLeft=25;spacingTop=5;flipH=1;flipV=1;" vertex="1" parent="1">
          <mxGeometry x="660" y="710" width="200" height="200" as="geometry" />
        </mxCell>
        <mxCell id="Wm3cj4wfwM-NdLzFGAPV-25" value="" style="html=1;shape=mxgraph.infographic.bannerHalfFold;dx=40;dx2=20;notch=15;fillColor=#10739E;strokeColor=none;align=left;verticalAlign=top;fontColor=#ffffff;fontSize=14;fontStyle=1;spacingLeft=25;spacingTop=5;flipH=0;flipV=1;" vertex="1" parent="1">
          <mxGeometry x="450" y="710" width="200" height="200" as="geometry" />
        </mxCell>
        <mxCell id="Wm3cj4wfwM-NdLzFGAPV-26" value="Agents" style="text;html=1;align=center;verticalAlign=middle;whiteSpace=wrap;rounded=0;fontSize=18;fontColor=#FFFFFF;" vertex="1" parent="1">
          <mxGeometry x="780" y="870" width="60" height="40" as="geometry" />
        </mxCell>
        <mxCell id="Wm3cj4wfwM-NdLzFGAPV-27" value="Workflow" style="text;html=1;align=center;verticalAlign=middle;whiteSpace=wrap;rounded=0;fontSize=18;fontColor=#FFFFFF;" vertex="1" parent="1">
          <mxGeometry x="481" y="870" width="60" height="40" as="geometry" />
        </mxCell>
        <mxCell id="Wm3cj4wfwM-NdLzFGAPV-28" value="Which system architecture to implement for LLMs?" style="text;html=1;align=center;verticalAlign=middle;whiteSpace=wrap;rounded=0;fontSize=18;fontColor=#808080;" vertex="1" parent="1">
          <mxGeometry x="541" y="640" width="221" height="40" as="geometry" />
        </mxCell>
        <mxCell id="Wm3cj4wfwM-NdLzFGAPV-29" value="Offers structured control through predefined paths, ensuring predictability and reliability" style="text;html=1;align=center;verticalAlign=middle;whiteSpace=wrap;rounded=1;fontSize=18;fontColor=#333333;fillColor=#f5f5f5;strokeColor=#666666;spacing=10;spacingTop=0;spacingBottom=0;" vertex="1" parent="1">
          <mxGeometry x="250" y="810" width="190" height="160" as="geometry" />
        </mxCell>
        <mxCell id="Wm3cj4wfwM-NdLzFGAPV-30" value="Provides flexibility and adaptability, allowing LLMs to self-direct and optimize process" style="text;html=1;align=center;verticalAlign=middle;whiteSpace=wrap;rounded=1;fontSize=18;fontColor=#333333;fillColor=#f5f5f5;strokeColor=#666666;glass=0;spacing=10;" vertex="1" parent="1">
          <mxGeometry x="869" y="810" width="190" height="160" as="geometry" />
        </mxCell>
        <mxCell id="Wm3cj4wfwM-NdLzFGAPV-31" value="Successful GenAI implementation hinges on aligining AI with business objectives, ensuring scalability and compliance, and building trust with stakeholders" style="text;align=left;verticalAlign=middle;whiteSpace=wrap;rounded=0;fontSize=16;html=1;spacing=4;spacingTop=0;labelBackgroundColor=none;fontColor=#ffffff;spacingLeft=10;fillColor=#0050ef;strokeColor=#001DBC;" vertex="1" parent="1">
          <mxGeometry x="240" y="1240" width="830" height="50" as="geometry" />
        </mxCell>
        <mxCell id="Wm3cj4wfwM-NdLzFGAPV-36" value="Scalability and Compliance&lt;br&gt;&lt;br&gt;&lt;div&gt;&lt;font style=&quot;font-size: 12px;&quot;&gt;Adapting AI solutions to grow with the business while adhering to regulations&lt;/font&gt;&lt;/div&gt;" style="text;html=1;align=center;verticalAlign=middle;whiteSpace=wrap;rounded=1;fontSize=18;fontColor=#808080;fillColor=none;strokeColor=none;spacing=10;spacingTop=0;spacingBottom=0;" vertex="1" parent="1">
          <mxGeometry x="531.5" y="1300" width="240" height="140" as="geometry" />
        </mxCell>
        <mxCell id="Wm3cj4wfwM-NdLzFGAPV-37" value="" style="group;strokeColor=none;" vertex="1" connectable="0" parent="1">
          <mxGeometry x="524" y="1440" width="260" height="260" as="geometry" />
        </mxCell>
        <mxCell id="Wm3cj4wfwM-NdLzFGAPV-33" value="" style="verticalLabelPosition=bottom;verticalAlign=top;html=1;shape=mxgraph.basic.partConcEllipse;fillColor=#10739E;strokeColor=none;startAngle=0.75;endAngle=0.9131563008489516;arcWidth=0.5;strokeWidth=2;" vertex="1" parent="Wm3cj4wfwM-NdLzFGAPV-37">
          <mxGeometry width="260" height="260.00000000000006" as="geometry" />
        </mxCell>
        <mxCell id="Wm3cj4wfwM-NdLzFGAPV-34" value="" style="verticalLabelPosition=bottom;verticalAlign=top;html=1;shape=mxgraph.basic.partConcEllipse;fillColor=#10739E;strokeColor=none;startAngle=0.75;endAngle=0.9131563008489516;arcWidth=0.5;flipH=1;strokeWidth=2;" vertex="1" parent="Wm3cj4wfwM-NdLzFGAPV-37">
          <mxGeometry width="260" height="260.00000000000006" as="geometry" />
        </mxCell>
        <mxCell id="Wm3cj4wfwM-NdLzFGAPV-35" value="" style="verticalLabelPosition=bottom;verticalAlign=top;html=1;shape=mxgraph.basic.partConcEllipse;fillColor=#10739E;strokeColor=none;startAngle=0.9166156460344193;endAngle=0.0839203399606523;arcWidth=0.5;flipH=1;strokeWidth=2;" vertex="1" parent="Wm3cj4wfwM-NdLzFGAPV-37">
          <mxGeometry width="260" height="260.00000000000006" as="geometry" />
        </mxCell>
        <mxCell id="Wm3cj4wfwM-NdLzFGAPV-40" value="" style="shape=image;verticalLabelPosition=bottom;verticalAlign=top;imageAspect=0;aspect=fixed;image=data:image/png,iVBORw0KGgoAAAANSUhEUgAAAKAAAACgCAYAAAH8yFe7AAAABGdBTUEAALGPC/xhBQAAADhlWElmTU0AKgAAAAgAAYdpAAQAAAABAAAAGgAAAAAAAqACAAQAAAABAAAAoKADAAQAAAABAAAAoAAAAACEJDuzAAAny0lEQVR4Ae2dCdhd07nHM4/mkEQkZBBiqrkINStViipXUXJLUVpDa2hx6zPca66haKsTqjTXdLWlWm3RoobE1IoQIvMkEWT6Mt/ff9trW2edPZ99zncSez/PPmutd73rXe/6r3eNe+192rX79F4TJkw4l3uldS8SGu++++6JBpVx48Z1JdxiwrGuBIlh8uTJm8o1YfmjrkmTJvVz4zq4hOXLl49zaXFhND5z2rRp64fyGK3kch8cygTRLYXP75WwKo0ROnHixMFVkRDQ6FR4Tlec4Q3j82g24LbfJID2A+OPcttHRUTRnYwmim/QoEG/MvyeQFSfA2E9Q+zUqdOA/v37TzHhzK6LhRs2AsNwdTRuV2U2JnGYu2LFihNceocOHd6xaZ7AgQMHmqKfJ+1M2GaM8a8TE5ccpSKaYho3MRVafj2OyRYax1cV5yesKJJodBJrVTGXhE8jAmoh9i0MXMMl/mKXFouVERjL5EfCO9XmU1qFO9nEjG3YThr4A4EmBxOTJJz4jew0K1euPNykzeSC4ZkmAf4PjD+XixZBiYwAt5ICBiJGMDbcIUYx4W+R377Gjx+/PXFf9GkzcBfb8YFfWNh3EJHC42oY9NgU56dKH1cZbmLSdEyRZzhLVGJKtk94Cqgqtol0tTF022UUPN4Ox/rDBCJgvzB6rCBFmkTGdROMGjWqMzOuHi49Now2h7gCgWQ3lxYrpIwsEUiDgDeJS8MYxcNKZScWIoeExK9gHnzLgAED3g+JS02qUlC9Q1z/lRQflrO6edJdrDj12rNmzVpj4cKF88J4RYN/Jnx9Q+OlgImQ39w2zfjzusicataIJj/cOSqIZBqa/MH4pIB7xSHp8mYJo8gy+LsrjckDt1cWGR4vJbmLey53TXYkYW4P+vbbb/cWUv59XGblohK4GUXxiS5eVSUzgz5xfHFxoWs8xpH9Kdm+bkKqJpTf5VPYKLXxxhtPGzx48MwwHkOLK3RVKzaJ6ulSvQM6cll5aH7WYoUDb9BIZAvGYINYy5MUb7FWeOPQEaMUg6ciTWhACpgI/EfIj/uyRQviDS3OTVLMThvHGyBIglsdJb0uwNAMuoRPZr/h93F29c4776yNvIW2ElF+KRdVvVFpAroahRQ0SpqIuBJbPGcn8SXFG1mpXFuY/HY4jQCbX/7ITcE0wqJ4NBRJOIh+Szx2plFpDF28WfhNupq7GZS9EMW7GIG22759+9ew3QdtWukvESgRKBEoEciGQM0dNaPDaWRZtQKjk36VTvqhbOpUc1cp6E4M3CRmViO6hi6emty1ySabjHf5iNsL2j4+/TlmLI+5PGnCoQraSthCpHxUnM3n+lH2bGjrmGlVFhBcWe1M4ilTpvSS37+Hi9HEVSXKSIiTQ9wbFGiYERm5CJo/f/4Sw8QE1V4/GHLNLopcyQLtKAmKUtqeUVdkOGzYsHkkegLiQGbP/6iILChAlX/fiGJGdKzx226kgmLC3qqWnnbiIv0oe6/koWh3Np208+BdoQpacK8gwc10GTLymi6q80SUuFNCkDnOz0Prloe5vyq6udgRe9v4q1qxiZBrFM3Tch055xF+GzlBv+jL1smG7nHyIxuJn4EQXGpn5ncZNinSD+/eKHI6MnraykH/UImgnx6nnHhCq1gRukgc1nrX+Tg2/hclWjCNyfQAD3Tr1m25zU1Va1ma6gpFUMLDUkPvFkaPolHAX2j93K9fv9lRPMjcBZS9jYIwnlAFwxh92vcofUtMfEWUdlIrCCEB5D1PVW8bEuWRYqvYTsRuwWZ2OMmvgqgmuMNYJ4YRw2ixrTgsQa00PVfq1avXRo6cdLtbTqKKYFJrq2COCey0007qFSbYLBEoeywVVRylhN9n2TJT+Ul3LPYVaRq08hfJ85E4YRUKihGhS0nUGXcLgupEX4oTEBUn+0O5aXGNijzOhW9nFI1s5WGt2JsY9OjRYzIZVE1EoxSy6WR6mtKi3O023fVT+OtEw73FjTPhKgRh3leRvXv3nm+Ycrh96f9acqSrSlKhIJAHu6gg8H9wDwH+bexUqrq4arN5k/zkty/5fBDHFygIchVdjq+sDHgbNy5OoInTRvmmm2462YTDXJTbM6mwYTboyfKV6qqAjWxYRi5NmbKJf5LOXLpxJqyawJ+4kAoQNAltFyUPsMNZ/FJSSnB7yWykNM1nEtEO2nNZZEbyksleVIeHNmge7GfcEpnAiRC/IZH+SDts6FFuhd1FMYkuoXbH6mfyW1AYG5fOT3si7pvcBylso6lwYRdKXSLFDJq+konymWhsI14ej30+kdlhSI2gnc5WLAoNFYLq1EPsDiC/DHu+wpaR1p9LQSMcBYajSCQqNIQbhgwZ4k3vTZrSLREoESgRKBEoESgRKBEoESgRSIlAqrkqk+eHmBAfnlKmzTafSfSaNsH47Qm5oeV0W9FtJPmE7kHmlJk6WSKATOi1k9epS5cuG8TtMoflSFpvE4XCJeYTlj4NjdX1YBYcx3HbW/1Pskp60k2vc05Llix5HvpgNy4qjNwlVNDVlCH07cLEgtUCQi1powqURMeyu1Hg8wSovdREF+0n7gH9duinJskx8XoNrnPnzt6KjwfinZBd8Swldk/GCHFdlLkM2n+5dMJPUFP7htAbRgKcVjK7PCRDz+rYzLo0JC6SNHTo0I8or3ZNhuEOxa3YQekQmTImQuZMTT7usMxoa/AcfRKDWOsSQNFhgmD73Q+vJO7ARAEw5LJACaamIzc60mTcDDyUoYurB0aQ2K3ZaRIBxNKeot3vRY1MIuFv7MT4L/WbjDYN1cl6bw34PBs6vG0dvAEFrmUXaypWZnT5NoB5zz2g6eyBPRAZnsClrBXNVxGp0SYDjXQDjDRAvVJ+OtYOjIQr5Cc+OLlBcNGcOXNu85/HKbruF/lXvEwTlSGVfTX6n0/8z3H/RLr7xBs2SETJMPTUAJoExiXT9gY40fJMc4ysolyAaZEsLMVz5bcv9W922Pgpy96kecqEs7iJTThKGDW3EgD3J/O/8B7YZlFzxKRCRcmPo3OSrP/SpUtPDuORRYXRRcvav0XJsemZAHTBwOT/irDcVmwrktaPFX0Z8D4D/1is5rdp08XxIdPs/t+IzNinma6c1NMYvkCykZ849WMEAD9FaTiVqUlsUZc3OGFprxYlEEPQ6kTXWR876X9TW+CyZcu8989psqleZqBW/wvejhT0Nd9S02sVw0kzvJWK0QmD/8CN4aRptG//L/gfiGUiEr7lvqzMrSlzgiRlTDwAHglw2oTwRmhDb5QLwJod6Jxd+Md/IhShCbdERIWSQwGkNi6g4CeSeey8yJE4nXOcX6715WFHZsOClLlFmWUFsKoJYzneUA+AWzO6Lk1bAtaYp8A/B0WiX1ROKywHnyp79OjRiX36jjvuuIyyhU5ncmRbPYIaAPMM+bWkzaI8pwg2AYT/dNKsgJbYXQB0ldEsXrz4+q5du35X8mq2QEcpLdFOQ7Efi25ABai5BNfhXgEtSzOXmJou09QY2X9PHzu6JmEkRt5hBjzK+ees8qpqwxVAjfwEmu7gArR1g0ADPQa8rFYSpyLLzUc5m7q9eCjXs3G8YXGRAGJlWmQvdhPRBJZQAG/Nq36Hke4an+do3606d6VjyTWeO5Sl9PXlz3R1qiUMeBcpfd5KiRqF1TxPxKTDmuf1vsI7AOAIeM4k/Cz+m1FipB8XOAC8JTsgAvdD4rUjkvsq2gKNPCzvCsoRvAmSRcFQAJMEYJ3ajb4sjA9lqmQaRfPWsskHOQPxj1C4FlkzZszouWjRIr0oUpMcpa8qrIhFX0UBaPRC3gX4zd7jQiz8jwwqk1ktreBw7DysKXKaQlot19SHt1IJVxmZed2GAiglKVwhr02aAusrocw/d6EL6Q1tbdHDrJNW80V4dvbTXQVPq++vySkUQJQ8GSX7SyNWJTe7qxLitLzShwO8p1s098tr0t5JHGbp0NRHe58cxUJv5SHRe06ymoKFAmg0AaQdaVaHmjBuRY3rezysXPQ52JVYwqUWX01ejfYLFiw41xaiwUGDhE0r0l8XAG0FsYBdCXsHpEWnQPNpcj+jzzpH4bDmJnqWiwrbjwr7nJWmFdCuIa/ElYmVJpe37gC6WrEM25aCHeHSFYa+nHsCTfx97gWArLW4Puy3NgBthKvOv+oizSRWJXfh5pqKVAnMQGg4gHG6Ya3daNob0Vf1AgzzRcRFADkP2tTyTHgcemVciUCJQIlAiUCJQIlAiUCJQIlAiUCJQIlAiUCJQIlAiUCJQIlAvRFo0w1Vnqitx0aptuK35U48WSUw2GjVQ6Fn2bJ/WeG2vhIB5HnDutpiz6notyjorW5adp4Pg7a9S88TBtBCH5Nm1SERQB5VRj6kTpMZW/T9ebw51eZF5klUygAKv5xnHU/yMt8oePTpyMQL8AfCtBf3IJsZWZw9X/ojvdtm0+vtjwWQQrbHAvVkS1/LTdXEjMKApMeL13L/jLTeYXMTV5SLfh34p5AvUwlbG5kCcvbs2deEveCDTvoq21nckYeqjBzLHUs+u/H0MPT0fiwoY8aM6SxBCEh9UtXKeLrvNw+HrKhivIC1gqdx9+vRKJb+B0lFV31K8SIqfis7Fyx3EmEdoswCnkQMI5+5epatgHtlFeamb5owfwkzCmVG6RtYFHg4z54rHnFCGyBlAbpH2u5C/AD/Y9KeRrq3Ca4lmn3lApCmMA0hG1Lb+lOnCWSwDa5OAHgWa2fQaD/fL9Qp08iTplnAk+5Y9zcpr07prhlWllwAIsi87CKhAk9XXlkfp15Ff2P7wKgyYXkNHemi9KiVjmXpZevlRo5GeJ+W+qhvLgBpqlVHLADVs0qjTLO7TOLN+cIAA5rpGb7eu6XVP0icNoH4yGgFc661TRrCW9NXzDDhVcFVX0il7yPdjb4Yhj5WcRoje+q+PHe/5U9YY+eRRrFmdan0J13doP3UpcWFc1lgnEATR82u0uCaciS5sRa41VZb6asWarJdcK/HvJdYAidRW94LOMy9NodnhBWnCa13iJtVQuSUwuZvlF+DhJ/XcpqsV34Gj/PR/+o4HSjPY2HxiVaC8HsRfkxYYiarm3DkbJKllMsWKOlG1CuMvqfy5tED7hv0fGx2KJPht+x86ev0jdeqv6uzeXz/AsBeI4Se7pQ+FtaHjE5EgNfk8WuZdDy3DkPeSfgS/NPw/wjXu/C/5E9qDanuLuB9k0z6cOuFR691hGVqKhxQ2uPXikXvw4wmvFMYfxwt0QKjEhslTDyfaF+z1reRjKw87uuvv94FHS5UWsBriZIByE9R4Xs68Zk3S0z62D7QMEW470Af4sctbEvwpAPgfVUu4PxdrnuxuXAUreJ/XTq0iQA+0KWnDecGkNcY9mY3ebIyoi/cIipDavwseB9h3qXFeGGXuhWO/u6HQL2WpkHL2y2hGf4tIpMxDv1B/pTlhL59+y5w6JmCuQHs37//FJqx9goXayAJy5VC6YPc6wL0ccRfGsaTh4ZMTXh7cqdOzoDxOsy5u6yojHIDKIHUtjrfyGv69OneCy4wFLZ2BjztZvdUprgP4QQrIJrie6I38koNIDu/Q2iqX6PZ3OfXZqKevAmu0VqfPSms+QKat68HWC2JCqRkoJuRrBXIvCxlkoDNm5YEoRgPE+J9FI0b7F7EsHtRZrTjmcc/k3jTxANe4U3Qyjc1FlaadI8SlQDl+8ullsbKTXORxmvi7qQ2TdowHiokfacXJiCChlzPKDQVimCJJOdCPVKaFUGzOM0PvmmRi/B6ICL/xCKE+TK8EZqp0JZZZabuA7MIpr/sR3/ZV2mw2HuzpE3iXbhw4ZX+hHmQ33dFJtHXOPSHjZEMn0SMx7sNLWZj3Fc+ISf7sgKY6gE74HmPMTXgJKuQjUMbHBT0cibG5+CGrk+NRH2NA5A1uf4I3rmG7rrEeft/8HmV7sbHhevSKWvEZrDpwzQn9dZ4nJJ54tBhJyrykIxpM79+WxcAMypdd3Z9P5rmHGmtVHZnWosm+4vpcq7MolBVE2bbZ222fR7ErL1RN40wTF8rkt9gcVek4W80jz8LmB2Vr74VDYBq6vZ+ZxR7Bb0CQH0Z0qxvEVbBmCJwOauEcwCxVwrepmLp3r37Wjzj0VRtflbFKgBEyLMCDkE3YtaR+2luJmwWdCKN1ppm6eay1D2sf8dMk0nYmRmMxtuIoOyz0siweSoAREA/RWJF5+FfZjMm+bE+jdDr6cwfOy+pRuskmXHx+v8/upqvw5OpqWhU1kX5llLpt9Ln6dDQII/Yrt1E303tVACYOlUbM1JZ51L4ikEhbYWTziszriz2bADVTrrX7TBqa48z05UIIBlcgnKXsIGgz3maVcBY/F2w1MGZciuAGfC8T4v6ou7AgibkEUu5tiPd4dxeq5OMPJ8USFzKAVQLstszcb1CmeiCtjnOIGouU/PxEtfwwybqCeTpra8BriUveFKBtK9gAJfVoI6XNBFAFN4bTp1JvshkBu0m7p8aizT0ervk51k8ulxaRF7I00cbH/ZlteaRmdiEqamnELy7LRza2Xa4EX6a3IF+Puo+vK6kiHwxBO+bNgxId+WR51qgpxjfIs3TNL00TH8KK5xToF0UZsZkLMaJzh3sqpQc0JyWR0KFBVIbj1K7X+KIrP7x4NdhAgFoJM97X1AcPCfj6IGSRjTvxBaDTcWiXXts2gAgvtbLq+ysByTjMkX/L1BmsbwbxxcXVwEgTfMwhK4ExA1I9J2whCx5RDcW+jObB2WqHhtq64nmp067xeZtBj/6elZNnxpqLGl0rABQCRCmp/VH4t3EFUCGJwDutgDyEYAE54Whn8PW0d1F7Ty7+SpMvlPIpz8j8ba0gFfDeLLQKIPX9yFX3xvUWj7XVQWgpADiAxHSfuhb6JpyDQ8K9IoBb4JEovAwQE/9OMDINi7Lrd/R0Z9OXkdAqxlAZOwq2XQ5N8rNe7mDSKIcWShMAXh+gosFKCBd4AqgyU8VDXd9Ny5LmC9TButU8tEEOPeFrucpMZXxFnfqh2RhGWYGUEIAUaeajsJbYfrQ9grJxONhmZQrL1seI7A5grYdIB5jx6X1syDYka7Ae65MOe5Jmy6KL7QJRzHbdEz/fsLeqsCm19OvEZgtt5+za3Qy+QwDxBYsezSAjIK2gEpaGfcMhI3VHmysHurrWFPTNeWs2SqMoBjXjNgxLOmjdKSEj2f/t2l6TKtkUadind/RMxAsTC2j6oKnA+CdrwhAf4b++IMqphyEQgsXlj8Fsr8uubJnz57XF3WSC1A68exjb9zNuPXOSnfuCYBzh6uLrFU0gJ9F073Njc8bLtQCpSQd9MG2MszwnyS80Ke11zdO4Rlu8+T1A8YyupK/CBD8VXNQyRXIFng6aVoYeJJfKIC+wp9F4W/Kr0tNDYu4hruF4B9Fo1Cf17Nj+Yu6kOmtgMhPiwDvor/sRWVdrAD0eYB37ccxxf0WCiB90DW+an1U6+42OyA+T0FGiocO/5TiitFOKx2vTwNIb4RVS2Bg+bafx0TAu77I/IysuvSBKB9segLYiyj/iMlQrmlSmpYUubZF7g8QX2EUDBiF/G2Grb/tr8jMjqjFD2CXk/6fkoFF7CzAeFy6jZEJqN5KAgsJaCYur0s+KkvFyKrRmj5ydF6ZadLVxQJNxhSqI9Z4HuFuhob7JAB2J04L+cdoes9ZcZm9/nPsU5DnNV0JYGrzCNvzL2YWliNB7ol0mrwASsukq/xCnilACWva4SXH7ZJGjstDpWyI7P0BaojijDxoL2D9j7r89QzX1QJdxTWosNd4BvR13Dg/rMehk+i3FuDqXxo6y1rxb8i9kV8BeCsv6A+yQ/NaJbUxoYYCaBdJ3yDg5OrnAWlTm57GD6g6sqZ/034pDX89edoMwLBCCVSsry9xa+PK+rSTvYjBZhZ92jTCNe2chOVZ0koESgRKBEoESgRKBEoESgRKBEoESgRKBEoESgRKBEoESgRKBEoESgRKBEoESgRKBEoESgRKBEoESgRKBEoESgRKBEoESgRKBJoIgaY61dbWuHA+sxOfu+nNC6F6Q0JfvlpbLkcX18Ttwqm6znLhk6vTtUuhLSOsT+sswv8R9zz450Gbi38mRxdni4f48gpBoFAD5MTy9gB/APnoIG5dzv0jt5UKfVNfTOBtuTkhZYokoVt7XtMeStrNMBKdql43krmOEegvQx3H0dE3KMO7+D+1x0VrNkC+F9eVCv0HIO5cxzqLFI1RncP7ETdGMlgR9ls/Ftn16gWTGch9nzJ9iP9DekIZTCsv9y3Fv4Q3vr0eDXmdeWOy06JFizpD70nPuaZ6S/WcpN+Auzfpo07Ru/nq1dE5pBnVpUuXV3nt37xUWMW3OhFqNkAq4V8AsrUBBQBfoLJG4tZl2EH2+sg+C9f+0MV3MMIbjA5R7owZM3rynvBuisdYJra2tk4s6DMsUVlW0dG9Ey8+DuSw/JaUYRgMPaqYfALx6hlf4l3Cp/N8yytKbjPRazJAfUeHHmCxKRDgLsEQvI//GFo9XIz+OOTebcnWF0ePt8KrnNdvHJrCfJY7aFxOQT6kl/wTr/yNcegVQaYZn4HvMYiaCjXymsIIcEiWL9HU9e24RpZ8Vc/L/yeTpymHbr3x15HX0LfD3ZfbvDqpBdHRGJj+YOl3YWXmXdjEv9QKS1cQrT+G/wo6/ISOKHjNPk52Qw0QxQYyrPwAQDX8jOO+itb8uj7svGTJkgtRdFfiZlGI66B7FRGn/Ooc5w+/ernZe8GZr3Wsi/HpaxozML6JMWXX25vBBZab8qGKdwJCHTzo1BH9ZiLa+3Yqup9G47kuTb4NM0CMT/M2b7GAKxh2QfHjGU7nYnzBalRx0PXVuPsZVo+qA16rpEgapD6i8XyS8uDn1umipDS1xpPncurrPeR4Bih5zFu1VZV4ucomJsjLgJJSMOwKjM+JjOJ32MpgXgQwmoNp7NtQN4/T2ENftYZHf1x+DDwfsXC6m/+gDeb8efO109Vrr87Ow/NTQH0X7byqiHDCo/CfHh5VUmtFQJ9cw7CWIucRDOsq3NGMUK+4cuG5Hppea/8h7s/5nkCrjNblqyXcMAOUkhjVdbQiPV0YFaH0XFrb9vB9MSK+JBeAgPYYwfkKIwq//kRAXyiquNjfvQG65nbehf9JpgJ/MuEi3IYNwUZZ/2/Ed/Y/d3IdrevrFOxB4s9i5aRN4PJqAAJgfSnZ6I689F1GIvXBj7pdDTdAUxL/P1DOIqy7vD6lCNRkgP7f1WuV1V340Zvpb+u3YAh9o854bufIL3vOTwAZjzf4jCWr0evZEtHXZVsNC48UZ0Z9llfbPWzdBKtZkybKZQejA48ev0S8nuqYaxlfjZxkAnGutx8Sx5AUx6bo0Sg8MonPjWfYHckwcIyhcwplIx6PjQGotQwtjas5Cn+/NaTWv6ROk9eqwKMnKjxifBVdvU/YxeisD8cG/5/k79GOg7+mTon6WEwd7obsl2PyDqJqNkBJItNOtJz/wT2bzFPt//jpLsEIL9NHYfVsFlpP0dNc5DWR+xQ2Zf+chn9V5OGgxwasPPURSYPpRPD6VZqy0KC7s3F9Mveh1MkAZKyL28ekJfwasrZVmLr7BuHbTZxcwhPh10o59oJP//LxHvdT3Ldk/f+VQgwwVkMr0v9g5XRI3pCtKPQ/HMV/iXc9hf3ru7QgLf0/tRdTmd3A5kAbAIzpAQ4l6PBHpkt/6cdQrN7NxvhkwprKfMsR1ko+u2Z5nuukzxRsqAFKM7r6vTG4J2K0vBzjq9oSiOFf7aKYs7l/4LuYOdVNWY5oYcAnY8BfAes9ASho8DFg6fTSqWCvzqBhV8MNUCUDnItwrnBLCWA3Myx8qlfFGjqZjpwPNkHdsB93c5Y/JaWRX4Lhtbj4umHw1nnHmzjRdG1R/wLh5pEUDgqZxFh0PEb4KDK/YOQCxp0Y3wgTTusC9tnwriN+QP+omYduTUFYsB2EqltI3zQXZXqNMmmfNNOlj/ayOt2N9GtwLyHxXA3DYDyJ8Mcf684ksT7MNa14alEJUA/GCIcjYzfuRwEm89YNxteNtJ7x+boo3HSX5mD0at9AsTRDYaA/hvIep6N1ri/z5f9P18OZEzY4Qd0MEOPagV5tc8ozHuN6PqxcGOGz0HXnupgsD6BHCdKS37Qg0CQeer3NML5jbXUwrL9T9r/ZtLb2g10HGvQe9Jp90O+lNEepitD5k9orQpovg4IcRIG0OSkD/AJ7hZoIF34xN9rVFgpwbfKPA7YOrp8GUvFcm2HwF81mfNKZOjsE/PalUW+Fjl/TQsgtSz3ChRsghqf/Wq9Qnt3yVJuSWQpID7s9YAWbrVT0HCr2pSwyGsELFhXvfIDPrEbkmzUP9hu9g68mHXpqalT3q3ADZFNzW5QPhnb8Y6Ie++QtHXOqTZF7mJVek+q7rXDTeNGzomKp6JPcPzNrBmVZZU9Fj5lGFxp3L3rBfiZcLzcwlKIyoMUPAfRAHOG3gkABHgx8d+ZUB9iiyON2/8SwTW4KP/PfxxjeuqLM9lIIbHrzp0cX0YMvIfgGur9HZWd5g3AlU48pvsFIZJGXFoLB0xKG4qGE6zqvLtwAAXgTGxGMZbwdzus3/1ZFZdmr3kU8B76l2Z8DY4QPcwj0cV4JPZryDxQG4NQFR6OFgpkuMNWcTdtOem1zDIbyL1bLk2v9B0OmMZPAN9CF8MZBoE6ewvcB/cdt+wFORw6fPmX/bXctZfC3MvTYyEwbnlPvUovMtkqL0WnFqRV8Pyp8TdyOaXUhrYxiw7T8NfK1gvFVNcqITV64AcbmVkYWigDD+CAEDvONsi/+QutTPSwLu8sLVdoRVvgQ7Mgvg3VEAON4F/G6C7n0roj5h3kJxLA1T63rlWiADBW7oMHDtIZgclpXjXzhFF5HfA4H5Nwb1Y3Qc3XKg7mk+ySptd7lM/Op0Hzo4m/DCJ5rtPFJGfLUJ9KeoQH8OFS5klg4AszZhXlwMTedEwTq5IntAemFTsIQgqwJd2dSWtdWQR76t/AF5KutCxniaQwN381yFClQuMk9HDhdi0renDIOwu2NuutQ/tg6yVEkLbMXc+uNw+ls4YyfN2/eW2EfZUIH/be1ncV0O1APf2xhAaZidcZwmGW/Kpe+5Km37BeQ2DNACfGHhoW5BDZRolmzZq3Bp9wOYuW7tauWU/FudC1h9SAaWvVv8xuC5Q49evQItnHIV8+lnxbu3BV7uMQVsoUWp3ysAcYldOMELi2rY9xnxChQe4yrDwWeRWE/2XByha1mYcqs41df4WWgigbtF3M6Pc+/OQQwkSFwdtEjDJh3mDlzZnceh/bFP9g3/rWVN2Hpsw/66Z5PXPCOCPRW6qmwBY7yC7tqNkAdNADApxYuXNgOENtREOVzPMr/xs4Q+jM8xRiO4ekdBPGNgWcrm2d18zN/1ab5qVS0ewzrn5T98UY0Qj8PjSj6QJHux7nb6eArveER6LaZwri28Yk0Vz/1vmo2QOYUU2k5mheaFZR6tqqumwLqa1jDTYEUNv7V0aWRbQkuevIRXJS/aY5h+U9N7qEeOvDM91h03TRQFA9PmO62w/Xy12yA/rkxt4VX6cvQMgKi7tX+4i2//gyntvGt5PHZbXwV4r1mK7x6SEajivk1I9rTjXq8GbsN02xgrSr6YHyH2rpSofc1o/FJR3q/rekFP2Pp+wEHO/5ihevqjTVAFKvYB2JY2bmu2iBcR61w7NcHl/ONEr08s0pcYLQuigab9vQw86jQMc2ovN7HZh74FVs3jov92g7X2x87BNNyj8cI/2wp8SzdtRVM50XGUuYYO9rvtDJBv4nKOdOVACAu6QT4qoiGicMPQ1n8HE0enbmfbesX1dFf/ydi1JO7yA40i1+P3VgZn2rrg94js/71hZ0+jz+2B6TlPs7dgYq9EOEV84QsmVEw/Y3Ba/QOh1jptDUReslgua8m786sFu8JZfKJyN0Z3s4Kks9wGkih36+LyzssjrmuHiEG+6Xo1nvs2LFrhvG2Fc1/5nsWuulImHeB4x/A+g0TbpRb0VSLzhRj2AGZL3Db+1/65yB9kk2974NWnhMwuKF25VlxkV7JwbAvwPWMUIyszDO9RxspPGcE5daHxfe0kr+LYd5phdvMq2Nt9NJnoF9QJzI+FpOj2kKpuhqgKRAVcgv+M0w4wX0EcO5j+B+FQb6ewOtFY4CHaog3vPgfYbh/0YTbwmWKMYJ8B1p5T6eH+UXWBmalr9kLTluBzVGOoN/SOMY6tIYFG2KApjQAsAfGpcMFWxtagjueShuSwKON7f0A9nOGjzz+xlzw7ybcVi4N70h02cbOX1sc9DZ/xRArHrraPPXw6ytm5Lmlka2GwH0rjbwhG84mX9dtqAG6metJASDsA11/0KL3D7T61Ya2/vhvHHtnl6c5Ud2sBkg59My1L84IbrNRj9ebr87DeQIDeJWyRi6yPOYafjC8Phi9vn5lLzgn0rDvIN+GNoKwYrSpAYYplIfWzAZoysPEf30Oe2r4C7ZoTFyci5F8hPHcwzA5I47PjSONThV9DfpAJ65Nh1xHl2KPcLvCGxXGAPdnCN7D5EeLn0P4NdzX2nqIMTrZrv/ezHCMRBvAiU+R4JmAAd5hy4jyI1MHPvTK6nY2j0YUsLgXt6kOgTR1D6heA0NambQ3BeAawgV61NXqr/T+HcXQTHTKM4jynGjplMoAGe4PJI37QvkHTGV+6X8c3hLZHN6mNUDA/D4QdTUw0XLf4jjT/WEHKQ2PXNLpUOdm9H474fa24+Rvyy0HV5eoMAaoP4exN4ln0AP+JIzf31A+Bv6N7Xjwms8jwTub9RGg0bVpDZBhVY+0jqcHdD+Y3QrYD7HKfdMUIs7FIAdSGceSJth0hX8aFXp7XLq2jEPXDpT/e7bONKib7OkE5RqGjodzu4ub2aS7m/J90JZlSJt30xqgKQBgdgLsgzEibWpXXNBms6n6O/b8JlVEhASo0KMwZvv8YaphLURUQ0jouzv6HmAyo6zvgcVfCR/ErXOGFRcGOprtnUfhq9uKuiLDggJNb4B2Of0tBe2tVQ2t8C2kwp6gZxxNJYROtKnUb9s9Kk9M7uZc3Nt2Hs3kZyiu2ke09ZNRUp77KfNMm74q+VcpA7SB5ZGS/tbhS9BCtzX8HuMZ9rv+jd97NosBHkCF7W7kYMhNsWFt6dOR3n5rerPPodv6hu64iyjDo/bBDid+lQqusgZoo+xPxPeCpoVH8IzT5pFfhkh8sCFLReb66rwrN0/Y13kYOunx2GCpFyaHeA2po/n2y5Or45uBoYUOA2JVoun0Sbdu3XRKRucXE/fZqOT58E6h55mCO5V55fsMa/Oghw7lSVggo/3UqVP10L8Pft16GqJVahpd9ErqyxyVeqFZt06Syp8lfrU0wDAA/HODOv0rQ9AKu80vDH4q+rzOPWZVWbUWDdqnxgCjgKPyteWh7yL3g0f7b1rg9MLtGZUmBV3PWD9C5kxzY2zTkzbUU8gtWUoESgRKBEoESgRKBEoESgRKBEoESgRKBEoESgRKBEoESgRKBEoESgRKBEoESgRKBEoESgRKBEoESgRKBEoESgTiEPh/Zr72CQYVyewAAAAASUVORK5CYII=" vertex="1" parent="Wm3cj4wfwM-NdLzFGAPV-37">
          <mxGeometry x="200" y="70" width="50" height="50" as="geometry" />
        </mxCell>
        <mxCell id="Wm3cj4wfwM-NdLzFGAPV-41" value="" style="shape=image;verticalLabelPosition=bottom;verticalAlign=top;imageAspect=0;aspect=fixed;image=data:image/png,iVBORw0KGgoAAAANSUhEUgAAAKAAAACgCAYAAAH8yFe7AAAABGdBTUEAALGPC/xhBQAAADhlWElmTU0AKgAAAAgAAYdpAAQAAAABAAAAGgAAAAAAAqACAAQAAAABAAAAoKADAAQAAAABAAAAoAAAAACEJDuzAAAI2ElEQVR4Ae2dO24cNxiArWBbWxeIAAtI4avEQnoXqdMnOYB1gTh96hTpjShXcRFAAqQLyGkNKCQsLrhcvh8zP3c+AcLw9T/48R8Oh7Oz++IFfyECt7e316E6u/wbO+NL393d/eIrD5XtQhWm/Onp6ZVOn52dvVfK35tyc3z9+vWZSRcdlbKnHAGv9lxhbaDYwxLl2kCxhymPvAq1pdCfGz6Xl5fXobbF5a5yrcAbNr6GxlpXj4xSc/QZ9npoBPRRCf2sDuemLOVhUqFWllJijOnjwSj7umA3jqVLjMb0UHdyBNRUlrwcJK8pNhVzObDL3PRBYLuVdj400abmR1tHMG2Um6Pd8MhD1eheNfjWbhRLJz30WTUKY3WmjXe2yRE0CtzjUZfdBna+dG60Zb3pnOntqMuuF17NJYU5XsT0HXnoNnYNFM/MrgLbQKzOtNuPsgqVX9W5+tJUlByLvS5RTlsInB4B+9y006v1VIQTJb2PXdvcOjfvs1O0qvEpEFEW62ltXW7HToNgbm+naxc7w2N1dkdPY4hze2v3PJXO1SmeYLODMRKxuhRhU9/soFHEEQIQgAAEILABAmr5f7C1K+5anLNVXDpOzYuFHpRKnS5qP9rB5B5mibcqBvtum5cYz2kbu0fW8na9nY7pbo7BmPIedeId3O9Sx3qbOxwxHb665KMbn5CvLOZgbZ3Pjq9M/BCLd3B4DHaLM9/4SyjLIljraOoyuPozqpiDsTobiPiTRLyDWauZ3OGwh6ZXOstBbWytgBY/xOIdzB7iUEyl4rM1NJodjMVnyvlQp+1y8UMs3kHvtbjH0NjDlJtujddcO7SDAAQgAAEIQAACEIAABCAQJ6DvikJ3RrG6uNa+teLvN/t2t7+21QEmIukv9Trtf4Fux+oCIv2Lu+wZ9Xfrq0a1wfBJpfT/0V+s7qjxwAIJAHUkXfn6GHs86WtfWtbj2dfqAHMiqaajBr5P1tSVAve1X30O9Dk1UxkAG0fLuytdo7PnaVFjv0LmQZ3eFxVyByLd50DfnHNg0ckY8EvJOeabs5zCjQgB2Aiw5yn8VvlyY07JUr8q5R5K7dBeGIFuV+Gl+xXapcn1o9dz6J6ncK7vXduVgmgF7zrPRcQlUpgHYCEwt3m3U7j3qeE6Gsg/BsoXK+4G0HhcOicZuVmPnMKNIwfARoDdT+FSf1rnzrWnjNUBGuClIFrBG7utR07hRoIAbASYfS+sTpk3yta7RntTiKunhJ/VBu+HKZzFSQhAAAIQgAAEIAABCEAAAhCAAAQgAAEIQAACEIAABKYnoB9dqk+uHnzTrelUrM60WeIo/qlc7Jt4Y3VLwNM2xANcCkStHQDWknuWWx2glLmslqOIz8aE5jL9srWq+9vXuVidr/2oMhEAQ51Tnw74raYuJDOifPVTeESnltQpOgIr317K5Sfzbc1c7027Feey7F/ONb5Od9QRWBuFMdlYXSkk5sBSYk57ADpASrMALCXmtAegA6Q0C8BSYk777M9IO3JH2dqr5ZGiBQtKv+jC59qWI1B/RUHzX/c7kdJRNZG7lFwzMUfBliPQQVGXBWAdt70UAPco6hIArOO2lwLgHkVdYvp1YOnVuw5TWKpnBD6EzQyr6bKWG+YdiiEwnEC3OXC4p44B/TzZKSrJPqqvGPi9RCDUtuccGLIhsfy8l1Pd74V7OZarZ+0vq9hqBOaOT7IdAJOI4g0AGOeTrAVgElG8AQDjfJK13a7CjeuypKNSG0wdgbvd7s+1wXaLQNOR0nWZkZv1OHUESoAOwMZRACAAGwk0ihOBjQC7X4VL/WlcP3bb1yv127SfPQK77esZIKXH1SPQOFy6fmyMXGO2+Th7BDYDaFUAwEaCAARgI4FGcSKwEWD2c2EpV73G/maJ69fP1Gdugm+K2kqyI1Ap/WwLnnI69I7yKfeZvkEAAhCAAAQgAAEIQAACEIAABCAAAQhAAAIQgAAEIAABCEAAAhCAAAQgAAEIQAACEIAABCAAAQhAAAIbJpD90fwNM/J2Xb2q8EZ92v5KV+pPoqsX/D55GzqFtXKOmpPJZr/acDI97teRdyrwXup/pfJdgdpauQIT8zQlAOcZq5P0lAA8yWGdp1NiviRhLWSsydYi/9UuM6Bav9Ws5ezXfe10ajjttnY6JXeq9ZufAWsHVr3A/qFGtlauxtYMMsyAM4zSCfvIDFg5uOrH775Xon+o/9l+1flB+fyTmon/qex6V7HNB6Beh6k14CtNtXBNdtN1JJZTpk8Y7buIhxAinFiOfT9L5uc/jUY1oyzCstZurZzp36gja8BRZNGbRYAAzMJEo1EECMBRZNGbRYAAzMJEo1EECMBRZNGbRWCRO7csT54bTby/VtLN1dsuddee6qjEfcBZ99dSrCXV681oEX8SA/AAzOgzden9saXtHcAUmGENKHBQtuQSAbil0RbYVwJQ4KBsySUCcEujLbCvBKDAQdmSSxL3AZ+2NACj7/Kls5Q4A4rZo1pg8LbU1wVwYgICEIDATATErQFnglfj6/39/Xdfvnz5Qcme18g3yDzudruPFxcX/zbo6C4qcQ3YvZOSFKrg+1H5s3TwaQTnz7Yl4Xgh/lmwKFoDnFHfqnU9QO1epfQfHGcG3A8ViTUIEIBrUMfmngABuEdBYg0CBOAa1LG5J0AA7lGQWIOAuLvgFffJ1uC/eZviAlDiXtXAKHkcqHsK1eIC0KU2ep/MtUd+WQKsAZfljTWHAAHoACG7LAECcFneWHMIEIAOELLLEiAAl+WNNYeA+Ltgx9/u2RX3HUV+Pq874ITCzc+AfD4vESGDqzc/A7p8R+87Sv98nstjdH7zM+BowOiPEyAA43yoHUyAABwMGPVxAgRgnA+1gwkQgIMBoz5OoPt7wc+/v/vW/PxV3Dy1sxB4/kmzG7VL8Kmnz91nQOXoFcHXc4hk6NJjqsdWhjd4AQEIQAACEIAABCAAAQhAAAIQgAAEIAABCEAAAhCAAAQgAAEIQAACEIAABCAAAQhAAAIOgf8BKWtnJwBK0ZsAAAAASUVORK5CYII=" vertex="1" parent="Wm3cj4wfwM-NdLzFGAPV-37">
          <mxGeometry x="10" y="70" width="50" height="50" as="geometry" />
        </mxCell>
        <mxCell id="Wm3cj4wfwM-NdLzFGAPV-42" value="" style="shape=image;verticalLabelPosition=bottom;verticalAlign=top;imageAspect=0;aspect=fixed;image=data:image/png,iVBORw0KGgoAAAANSUhEUgAAAKAAAACgCAYAAAH8yFe7AAAABGdBTUEAALGPC/xhBQAAADhlWElmTU0AKgAAAAgAAYdpAAQAAAABAAAAGgAAAAAAAqACAAQAAAABAAAAoKADAAQAAAABAAAAoAAAAACEJDuzAAAQ6UlEQVR4Ae1dXYgeVxnO7sZuQkhoKIrKrrsxtIZsKWoLIr1rSiGF0p8LvfCHIqEXpmgSEKMXunpVbzRKcyOhFMWLqiQUoRaR3AvFPxpJU9Zsdj+qiLUlNTTbZDc+79d5x3fOd87MOTNn/r7vHdg9f+/feeY975w538yZbdv06A8Cly9fXs6zFu3fku2rq6u3qDwtK0PyW1tbvyZ6FnT9+vU9V65cWdruI4SZiHZxcXGKy0hT9gMHDryDwoW0wsx4dHmZeEg4/1F5xEIpiPJTU1NXb926tYeI9+3bt0ypPMhiWc7kSQAL5DRDIAqu9oyFNguEDK9sRqCLg60hhZwnWs6PGEKgXrx4cXcC7rokLlJCQllwhpZ8iCpIaKbBUbAKAW3q2AsLC24fcgi1VacCuZHdwGUB08Gd1jivqSIwFggMBoM7ZEeSGFD+mjI3N/emFCjz7mibUMlggcj9GIbcN9B0PwvhoUp0lC8UyIyuVCrMCKRgYAZQEiLrRgKpSwvVQ9OJogiTx19bmxeGbLnsPlvEdSNwELgSYGYoSknZysrKnRk6CNrMVFQo8CWA0wqiKrCiR0cqsCurIqAIxEXAKxZKlRwXZV1IfiRmhjD70FY10OTnmM4p2ZDcO9BdXvhhKgiXkOUgw2QNyu/IunZjvrQsyWPasVtWW+/xTJRi+g3JlvJoHiQNoryscyJIQqQgU0hnyya6oYaG8ltPcajSKvSmweZZSw2UI0f6QBXlvrxslGks8Wd8kJasqJKXHCgvDacylrl+QWmsg40jeTLP8lMECTUyxoaeaSTKQ36mNdtZONKHQfNbUQ7OpgYyp00ZG0I0dBrMnsp2lhMrHYlBRYJh4CdB81gRna2d1nbQmedsbVqnCCgCioAioAgoAt1EIGiysL6+vvPmzZvfrNCVVcyEnq/An89qm/Hmc2Rb8/gxzXuWpnr8x5wj80FuaCI15548r5T1jRpIPx2bHRdGbQLh10BzUtJk7klkQx15GPNDl1y0zaDtJfydZaOJtjKCOB2vQM69JMw8WJE8ZSaNLGMAHQftMVlX2UAYcZ8UaMuzoWabj+GVDTSV5pVpFJs3XEVGWg00w4EpNM+IkDYXslKG1UAiYKPIWGmwzJt0LJhGK5Q7BwTTlU6lEa58GeFSli+/E0EWFnupw9cwprMayKeXidpMGw3UZTpqRbCMoDI87EbMaztz0QyUyngUyzo2wqxjo8x6ph+mCJbWqU6GCIVcISaxpWzyy7LMS1ZG8CgHTYrsMrpzvWSKlSekXYaxDjZwC4TpVIeNkoYSAwlkxhhpUDBPkMs8HGYaWNWoIrRs8hnBYRt6NHwcThLmGDlc3kU7PYs3J3k4z2eCy2XSjIE2AUVK0D5v44tVlzEwB62hPjpFHBZiGVAkJzWwCCkWRI9b5T0hxXSx0qD7YlIKlL+NJ69uK2MAQPg+IsFWGV7lUQQUAUVAEVAEFAFFQBFQBBQBRUARUAQmCIHg+/UQbMosYoXI96HF+sCLWCf4kw+tpMG6xLMoHxV1W9euXdu5tLT0nqir/hunFObKN73MxHbQCcTizKMoBwHIS2fg3Qvb3yZ5kPXarl27NpCeQt1x1pEuaXHFJKUMlKvPDB61w5Pp5/+zSB+S9GMNIABYlp115c310AsXLtxG3mYB+DxoD0k5nQDQYqi00ZX/NzrzQW4sKYPZM2kS59LrA8s2wSOmTgBoekCmN56FMjIYGE8VVrLO/0Bstdqzki4iAOmEJ3kpMm8PJGNcGhBY632qw6XYox5X0uErJw7SAernPD3xYZsMbwCZ2QzMBGyBkczauRTDvvLPisEAulDI89C8NnoKZ//+/a+zXBpyrhNi0jJPm2kwgC4wTM+kTjGtrc3VaXhFfQ94uZRWqPcGMASECvb0jnWsr8JNnA1vD2zCmKZ1cIix6fWdWUw0gAycGZ4IWNeFjHk4HQEQV0GvZRwWEDsNuQrn0Uq78jxN0pXJp/d7xAyDhlsbAP3MMg7c+S7UZZZxfJSx4eYZ9uGNQVOkn9tdunzsHvFAEgbG4RoY5QEeL+McA8CZ9xGonY4y96Hvc7b73wegIgszAGLFddZ3GYcEs8e6lMQw0CW7K/UZAHkZh4Hx9SymD+jUALLT26gS/KQqIyNAd1TSDIBlJfsC7ZJfld8lt4n6WifSFKThXbUuJzUBUp4OlwcOwFRpmYeV+s6nmL5vaWYaE9t4eOCTkLkYW26IPIQHffQ5BDClVQQUAUVAEVAEFAFFQBFQBBQBRUARUAQUAUVAEVAEFAFFQBFQBBQBRUARUAQUAUVAEVAEYiIw1k8mbN++/Qfz8/PvxgTMlOV6NsakCy7joaJP4bmYxWDGiAzJLvHLoSKT110JePnw1Wk8JvK0Kas2AKHoMCmDF/wEXvAfU3Hd5aLHd/P000OmlvajcIptJogSYQtP+Sp433AfxDbAK2/18O2qHxE/7L8EsKboD/m9iUy5h8Kwqk4PTHR2M4E3OTdYJYs3NjbS7eTpmXHyPttRmwfalHWszro7Ldu4Y8eOBzmfl46tB9KbnTMzM4/kdZ7aaIhKGvqUHYbsq6g7C697Ap+4+/3s7Cx9fYGOkS1Wx9YD6RVagBP85ufCwgJtCH1+CBdAhCdepfdkqEz7xiT1aTK2AKY9LJEB8IcA2t1g/Ruzk6eam+5QW+tDGMPk57Dji2yobyqHHqYsP0aHv+bL60OXeOIS7Mt8mNbkbd0D0fHvwqhcI02jUX5D1kHGMyiPxCdJU1e+dQ/Emf47OlfpRMIb/wEZMyEgFXmWr6xKhvsqGWe6sQUQHnaiyu2c70lvfQj7GhpKh7ncHh+eqkPZC0A6m3kG9fStTNpIh7555nMMXEReAOaB5xLc9XpceOh70pm7kDI2ewHIgk1PayLGsO6upkEAujqRB2ReG8mTJ6WPoaLVqzAmwJkvIW1ubv7GdZJMWhdd0/VRPFB6EXeAPc/WxjRmmuyhtWzWd7kcBCCD0uUONW2b1xDO+85hV4dWU0B6eWAfh1ZTAHp5YFPG9FGPAljxrCmAFQH0ioEVdXSSPdakfWI9MNb9/cR6IA8Lc6IfOtftFIAhw6qIlgEKBYT5fNMMgCFPJfkqCKGje+Hp6ekv2HjMCXserY2/rroMgCFPJdVhUMiEvYiWPc8comw3t3O5bJoCCIHpU0lQ+gkSiLrbcebfQpaeShp5No5o+n5UBTIFEEAdITBcTyUh5lh/u5U/cPcJTLq/9w0Xef1KAQTRGv4OJk8lnctjGoe2ohDg28cUQHjg5zA3cj6VBE/L/HDt8khW7Pt0FNP3NU0n0qFPJRV1mM4wQA9+OqpIbtfaUwDJMHT4ELzwX4mR/0X+FOqsTyV1rSNt2ZMOYTYAQ/lDlAdwu7kuLy0ayjZeOilcD/7cR22ZzkylDLOtyXLGAxtSPDD0PGWUfYqmDB+eWmhGPDBUS1VPAH+UH7hD7Y5F34YHxrK9E3JqAxCxrZGno9pG0TmEy1wcZGdirbdJmV3M2zzQ+vkvh/GdCeYO+2qvHvHAWEEd06E1eOHH4MlHIPNM7T0RCgaDwR03btwQNfVl0/lYbBUAbxrgfSe23EB5q1hZej6QJ4i8NgDJCgIRb/48SZ4YZFVFYnj/e9D5EsD7c0VRyq4IKAKKgCKgCCgCioAioAgoAoqAIqAIKAKKgCKgCCgCioAioAgoAoqAIqAIKAKKgCKgCCgCioAioAgoAoqAIqAIKAKKgCKgCCgCioAioAgoAoqAIqAIKAKKgCKgCCgCioAioAh0CIFaXw+uu5/JO9z34HXgT0PXh1Eefv+0br1tyafXnqH7n+jnH/HS/19RbuXDZTH730sHTBzvywBiMSYYPZS1Ckf8WdOOSF8bxV58R6D3IWDGew/Qjhi/ww6MZ5Jt67zg7KUDYueKr6Cz3PFtAGKAz2afm5ube9Or1z0loq1H8I3zx9H39Du+6PsanPC5uruU7EZMe3I94KnrPL7cetj28VHJb9tkR7Z3Mi+djwzECTgz7s5H/aQ+Ul8pz4eJBdfHTNfW1u7Gbs7vQmbqfNB7CWX61vIe+qN8UseqHyAeipZcYUtHNimyEWndeCGAK8hh9Oin+EsjaV4Pcbk1m5/A9jvmnsRUPgfZjyM9mzBMwyl/ibzTCdUBE6QmLPH9+KUVFvrCvLUBldSGTbNlczpVkpWcVwdkJHqUYt53FZFl+Jlaylc1HZf13HsB7It/Cnq+znpmZ2dfQd1nEAXf5jpK6RsBSP4g62BnZsog2yivDmgi0oMyHKbRjczhaMdwaSVfoY9P0E3fXUjeQh0V847T4D2eR9DLm5C8DmlbPQjA6Z/GXe0spJ/G38ikUGilj3ucJlriEfXWrEZAwII7tY/jUvECsvfiL/dyZEXRv/IN6PkqosKLNhZElI+g/lf4+yz+OhcckiUVcqqMY8Fu+UWZKR/Hg4zh0blOsmFNpnCK70Hfffir0/moSx/F5cs5J4IdJ0FzP/4m5rxoBMTZxoj9EhL6a/VAZKSJfjrZr8sYI2LVpcZL7sSMNC80lKhxBDQCNg55dYUrKyt3zszMPEKS6COYyUfcqgtuQYI6YAugV1VJn1zEfHEoJvn84nIVmW1ekqM6II9MgDNcJPUFhRZT+z6SffvaEboB7PD6Ga6EvSTb+4jqgHJkelsAQnLYGCM5ROck0+Kma74r/Y/qgGancFe3bNbJctVPH0tZmu8nArU6YCgkZR2yLF/RpV+nFKFnMJx+opdh6NLPd5M26KgtdD5Lcork2nRNal2nImDRJZtPkhnxfPmY3zfFXKnRH/197Ronulod0HSUcQJO+xIHgaiXYJpTlTWrCm9ZncrXPgJRI6Besto/oX2zIGoE7Fvn1d72EVAHbP8cTLQF6oATffrb73zUOWD73VELfBDo0gK7RkCfMzZmNMlv9kEPjBAE4jf7aIhoBIwGZX8FFS3k17meqw6Y4zd1XarKynWZWqeDuHTGqvdywJi7IcUyvAk5EX4Ltv6UV1ZuE31uWofTAeVuSLj208vIpm0HUXcQbfTSMrV57YZkCulyua6F9apyzYhXdAk1MTb5zfYmy1YHpN2QsCHNX2BIepMCR7sEhzvJ+4Jg/48HUfcM6ugteTp4N6R7QvaHe59V/7eJQJsOaXVAOB+9pJ06H/IhuyG9mkREH0wHIHoKEYH2ndOjIQQQNNK9ZUJVEm8oTx691QHBkNnRiKOeTZBlNyQbmauO3kugnZpGru8uBq2vjkDVKUB1C/4vweqAuLSegacfY7LA3ZBOYU6SuyFN1bew5AiOPSK5z5o2g4DVAcmB4CQfgAnRd0OK0a0ujeAY/ZlkGXKel8EBJ9l3NyTaKcl7N6SMEi1MPALWCMio8G5IiIbDSMj1cM6oc7aql2S2KycdoM15swP9QVvW5ugpasq1o4h5HNudEXDMOks3O7Qnsuvw3i/ZJcCzvsgOTzHjQ5YbAZvqZuyIGmo39HfmRe1Q2/tOPykRsO/naWzt70QEDEWXf8wnPt1TJhS9btGXcsAGbhpyUZJ70OieMrlQdb7R9xJMd291HXXKrstmlRsJAa8I2MFJ+gb6Tzu2Dw/8mH47Fs8z36zgtnFL8WjcXuPLRYRFbw8vB+xa7/Dz28v4ufBRYdcxOKEojm/WcD56TO7lPvc26oJyk0Csr6/vxJcjPw+di03q7ZCuVXwh9IX5+Xn6iKAeioAioAgoAoqAIqAIKAKKgCKgCCgCioAioAgoAoqAIqAIKAKKgCKgCCgCioAioAgoAoqAIqAIKAKKgCLQOgL/A3Mj1yLRrfeYAAAAAElFTkSuQmCC" vertex="1" parent="Wm3cj4wfwM-NdLzFGAPV-37">
          <mxGeometry x="105" y="10" width="50" height="50" as="geometry" />
        </mxCell>
        <mxCell id="Wm3cj4wfwM-NdLzFGAPV-38" value="Building Trust&lt;br&gt;&lt;br&gt;&lt;div&gt;&lt;font style=&quot;font-size: 12px;&quot;&gt;Establishing confidence with regulators and customers through transparency and reliability&amp;nbsp;&lt;/font&gt;&lt;/div&gt;" style="text;html=1;align=center;verticalAlign=middle;whiteSpace=wrap;rounded=1;fontSize=18;fontColor=#808080;fillColor=none;strokeColor=none;spacing=10;spacingTop=0;spacingBottom=0;" vertex="1" parent="1">
          <mxGeometry x="804" y="1450" width="195" height="140" as="geometry" />
        </mxCell>
        <mxCell id="Wm3cj4wfwM-NdLzFGAPV-43" value="Aligning AI with Business Objectives&lt;br&gt;&lt;br&gt;&lt;div&gt;&lt;font style=&quot;font-size: 12px;&quot;&gt;Ensuring AI initiatives support and enhance organizational goals&lt;/font&gt;&lt;/div&gt;" style="text;html=1;align=center;verticalAlign=middle;whiteSpace=wrap;rounded=1;fontSize=18;fontColor=#808080;fillColor=none;strokeColor=none;spacing=10;spacingTop=0;spacingBottom=0;" vertex="1" parent="1">
          <mxGeometry x="304" y="1450" width="195" height="140" as="geometry" />
        </mxCell>
        <mxCell id="Wm3cj4wfwM-NdLzFGAPV-44" value="" style="rounded=0;whiteSpace=wrap;html=1;fillColor=none;strokeColor=#CCCCCC;" vertex="1" parent="1">
          <mxGeometry x="240" y="50" width="830" height="470" as="geometry" />
        </mxCell>
        <mxCell id="Wm3cj4wfwM-NdLzFGAPV-49" value="" style="group" vertex="1" connectable="0" parent="1">
          <mxGeometry x="240" y="1680" width="200" height="30" as="geometry" />
        </mxCell>
        <mxCell id="Wm3cj4wfwM-NdLzFGAPV-47" value="" style="shape=image;verticalLabelPosition=bottom;labelBackgroundColor=default;verticalAlign=top;aspect=fixed;imageAspect=0;image=data:image/png,iVBORw0KGgoAAAANSUhEUgAAAP8AAAAlCAMAAAC6c8+xAAAMJ3pUWHRSYXcgcHJvZmlsZSB0eXBlIGV4aWYAAHjarZhZklvJDUX/cxVeQo4Acjk5ICO8Ay/fByypWt2t8IftoopkPT7mdHEHKPm//vnSP/ipU3vqQ02mSOanzz7r4o3lP378x+vM+cX7zm/5ca1831XSnz74+a7w+OV6HT8+rVxpvLavP7/nazFQ+2Ug+X4tv7texl+ut+/p659WZPI9c/31eil5519/7I/f96499pzi7r66cD7yY1M/t/h5x40M0tvna8JD+R28189j8rC88kml55sPM+58yiy1tPxKL7es8op/Xk85LLFXr8prrae2zzVrWmc9LbfSemq99fKqttlus1bbqd4aV+v3Wspn3vmZ7hRj4lu4sxYGK3zj80g/3/yvj98O9N75OmL7QF++AK41YChxii2euQtAyvtZR+NzwD8ff/0BWAbp3BXHbGxw5f01xB7lj9pq6QN048bBa//6st4fA3BEzD1YTGkgkKW0UaRkrVVL4RwNfBYrry31uoGgjFEvq6y9NQEcqzE339HyubeO+nUZCgHEaNIUaGZbYNX76JK6dqOG1mijjzFk6LAxx5ImXYaIqAQXlzbtOlRU1XTqsmbdhompmU1badbZ4OqYMnXanHMtJl2MvPj2ssWFXXfbfY8tW7ftudehfE4/48jRY2eelW697fY7rly9duddXpxS8u7DxdXNp69Hqb32+htPnj57861v1D6opj9h9nfk/jNq5QdqAJY+mHVu+okal1V/DlFCTkZgBmK1FxDXQICCroFZttJ7DeRSYJZnhRWjssoR4NwSiIFg91LHK9/Y/YHc33BL8P6/xa3+ilwK6P4fyKWA7jfI/R2336B2Q99P8DAjbEHDONTcoB83uLGcMf26bkG5tOQzS5tl5l3rHM0e4xvCxH2uT7qv8V4KW3gbRPer9zlcGYhZU45ucOPSfBbahWZxqJl93AAk77L3nr2yQNntLEvYze5appT5ujNLvJOQMW1dXjm2L2N3ePny11Djd0OlZf/VUJ1/Of/ymv564cfrQIDBsOnY2w+z1nO3soize8U3gMM4x+rgI5x6TdeHKcUhb5oNBZmDGmktnyMXjtxGbRqrrK3PzGrm7JYPOOt6TInb5a8Vfd78/ZVq8Dm8TCtC+RTqgAqdnpVdY1/jTqrcyjVKRFKbD9h9i2xBs6oOyqhKCWZAlLLP8U5NAtrUU+fqnUoYw9CISkXd2uXYOxRkeWto0bWYv/nkWLyfg2dBJk4aPnt7R28fss0OBYIATKqeIuUGSEfJ1oTQHDjkgpexOFYdFpzz1dP1PQSZCdpR3lcv8Ync9p7AHsCg7jjH5Q77fS8KQt9ufUA8qAw3lKW0if8wwnnxdWpzPtuNZbE4cVATTud1/jwZruWXT/e2FBdlU2gWNBGjpDt/8b3GADjGWza285anFR5RZs9UhTeAFULEk1P8WSxUxOVRJmC8d4gfZXldlp+zsmvtyr3nsU+E8PraqMcePlhT89R4FmLJ9xR3juOX0e95eoDh6VxHFvDndc+9x9yiaHO5CypqO0YgSLLmmVU6oeau2EZe/XOkgz1fRpN7KdrOcWwk8TjbhEeL8/Lad+hUvnAvDfTJFh+CcZNs92yWjhrJO47EFcbZvXmhkhfVTfVQi4+VLUZlIyItIl2itF6mFofYRW1RNeSrHKWWVonBIxwd9DU4zHqstGe2BmthCzvKbUDG0CNWeAu1sga6Nn3ct+9e7HtAVONoAa0YwMJENFcmy1rXW0VvBZuFRWXexGDUyB1IrqrvW1cfFwPaIH3rQJbdNmombrdw0Pha7lLQZBQJG/HYwNo3QXEII758LLLApgpanoDOt7IecGlsDA1km9jX7qdUYf/rGvhzs6MtdQO/bOZlO4364WQh6ugt4G9BDKT9zQv/sOZDgMXQNqp9rs7K9CKlOMJopJGzFc4vdF6t3cczMyk5FOqNcnsdwSCOTXTjCQPGXbiEU7PrTyrlvNdLwvk0CS5fq1QNhy7gDQts3YWqzaXwANvYh/IGyex9urHQGhO+BvkpoBTFd0CjUjRItEAvVoouzIKLjrun1JMjuQAPTyyCM+WDpqc9BKAg/RhSwnwjHVDr9TLVMZ4zFYwSGjzMsJfT2XqQSA3V5M43C4aHTmzu2YaI9sbW2vRAQdE1BZS5rkaemPPWjHmQU27Yf6nziJMpojRxxhVSg+3ERrZp2vesydlQZyuLzbUNq9qkBcw0P9YXitBIl9Q7+woHeSHmGDIkcKg/oHpmIDIBKage3+Xx+fXTIR2AW8xGkRNPAJEiqCWUQpSuzrF0ifIlntBcjJ2EwINBU6gOw7P5faioGwc0Kia/gopjA2y92sI1CERx6CoTqXlKSNGtTlPjtBzaxqQkKfeLe3EolLlVyplt1nkHnH3tjnDbdvBbsp+GauMlgMiKZ2LDZd8gBqU6J/fa5ZOzMyDkMBiEkTj3SF90PVd4w5R5Kf4jY0TS2RAiFf9yi7XIXepwiJMYeyx45CuHb81X7QBhLhZx6ctgO/ZhOHaYNCdlSVC6clH0gj3DCHbDN4UDy2iWYwgn1/2W9E8VttN81wdFcCVO3CY2Qq6AtPZaxopbyFjNlP6K9WbUme5jkQ8OhWKzHBwBD/QT2bpCVYFI3sayjTaXhLZSK7rR0Dxx0WKLXgebCYlCMWNwmDiQGeS3X+QKpcqopDgjbMIZqtAgbY8QTkRF/vlaIwdTdqCzVRY9I4JBoe9QfnZwb8GDJl0wPGRD7RLJiQ36EpPWFf4MxHCLxPOwDoAn/uGcAA4VPmdVXjSz9pQoiGJQTY9cPRq5oQghAtRoFrm376Cdkim9GcvmBEpGwtuegG7Bwf7mudjXov4n/kg+RXsJy6IJd7ttxW6CRmMdkHudAAshRwmth3c1eI6j6NyUIkRA+7n/XQqHen8YUwLC5aQ7tAXSWagaAuo47iew+BuHbgCSkNIJvdlCK+Ea+nhfixagcLD3pk13oVT6ZCGuHd/zQ7mRhmhP/EwK+wGpbyTh4OvR+jMXzkCBndI2uKGWIwkRDuGk98Gj7kKbVCk7o0WsRA/C4vmEdfqaIxTcZEhCatQ+GocPwrVIromcVCuGsiLM0EJRnog6/kPY55WmiAGUvDD7fRXLhyBSYRf+SlHSXdDIFB8cNtFheYZOcJPJ0PcKcB3albDGIBA86hG194jEI+hvoV7Ijpk0ya2skzYLwD7GQmtFaBzWHyvNHiRitd3wFEM2V4OEOVo3AuWiIDQ2AGZOk34QtsjQqAN2sR8IlIpiEWGj03OOSDfNDUYGLchUE+EFWLqrl/ukgh8cncQlTWxjRGb3+F8DyEcsGfJxK9mFGooLFKNAe1InmkTuubd9AhQ+dC/z6dWaOBdU28FjwBZVmkayA6kcUuYe3RltcCdtoYsUCVaOHOsOxSPzaXRUKPOsyYFhIbZmeEaryD4kprarwuOPlEeeqWOF3ztOxdlT0hwMhKGB7sU4tl5TZ4aGiE0AW6PEgfay5VDG9AMlRBCP3DSoLQKA38CGUwhaQuxy2DlZ1tNz6pnEexY8IJlvRIWSwBLYHfmdxnNxBcfEUQiF2JOGBXfSRItdm4+MvyfsE1VV8ziPs/Yi87dOJqcpoUXAsUCCtve+CLxYDYHs4QyXoqSXeHNnIbnshOFUjIAoUSHG6T1oeBYniYfQdGGES+qY6JlCXmpkhwkhRag/ohyCOMEg1axP5dNGXGLjOyRU/qKsZozcrHJQp7yBGYMsrWAAWh/nwVfIpLQ3VK4lb4jHptWm4XcI7dETcA4XJwtmYGKP7dCkYeGl1kuMemRN5KogFyF3KHVfnBFtDdVAp3nthExYX4ipL4s4jWvSNNDokhk2UkuoirdGJP3za/rlwl50v2xqmIAa3q8REDqdx6WBVf30/JAkuiEqDMJhk6gykfzh/eHGoY20h5e90BIT37GxGX0xzCQv4kESdcMvbQE0pF34DDKZjoz7aBNT/qx69Zt/v+T/8EoL9TKrp+v3kwichxi86Pzpti6Rb3QSlhBYaKlg1ztxPAuqNba1j9A0NSCAF0KJIbAS1xIci774wvJ5meai6tCVESb6xRcJaDw+XeOM/3yh7cI843/MkUTKf0eg0J5QiwoZRwjN2ECulMuLkFm1xv/xKDmYJvbOnNO/AWzHIrlNDlIWAAAAAXNSR0IB2cksfwAAAARnQU1BAACxjwv8YQUAAAAgY0hSTQAAeiYAAICEAAD6AAAAgOgAAHUwAADqYAAAOpgAABdwnLpRPAAAArJQTFRFAAAAAAAATGlxAAAAAAAAAAAAAAAAAAAAAAAAAAAAAAAAAAAAAAAAAHi/AAAAAHnBAIDIAHrCAAAAAHrBAAAAAAAAAAAAAAAAAAAAAAAAAAAAAAAAAAAAAAAAAAAAAAAAAAAAAAAAAAAAAAAAAAAAAAAAAAAAAAAAAAAAAAAAAAAAAHnBAAAAAAAAAHrBAAAAAAAAAAAAAAAAAA0aAAAAAAAAAAAAAAAAAAAAAHnBAAAAAAAAAAAAAAAAAHnBAAAAAAAAAAAAAAAAAHjDAAAAAAAAAAAAAAAAAAAAAAAAAAAAAAAAAAAAAAAAAAAAAAAAAHnBAAAAAAAAAAAAAAAAAAAAAAAAAAAAAAAAAAAAAAAAAAAAAAAAAAAAAAAAAAAAAAAAAAAAAAAAAAAAAAAAAAAAAAAAAAAAAAAAAAAAAAAAAAAAAAAAAAAAAAAAAAAAAAAAAAAAAAAAAAAAAAAAAAAAAAAAAAAAAAAAAAAAAAAAAAAAAAAAAAAAAAAAAAAAAAAAAAAAAAAAAAAAAAAAAAAAAAAAAAAAAAAAAAAAAAAAAAAAAAAAAAAAAAAAAAAAAFD/AAAAAAAAAAAAAAAAAAAAAAAAAAAAAHvBAAAAAAAAAAAAAAAAAAAAAAAAAHnBAAAAAHa/AAAAAAAAAAAAAHrNAAAAAAAAAAAAAAAAAAAAAAAAAHrBAAAAAAAAAAAAAAAAAAAAAHnBAHjCAHnBAHnDAHa7AHnBAHy9AHnBAAAAAAAAAHnBAHnBAHnBAHjBAHjBAHnBAHa/AHnBAHjBAHnBAHnBAHjCAHnBAHjCAHnBAHnBAHjDAHnCAHjBAHjBAHnBAHnBAHjBAHjBAHnBAHjCAHnCAHrBAHnBAHnBAHnCAHnCAHnBAHrCAHnCAHnCAHfDAHe/AHnBAHnBAAAAAHnBBYQ/vAAAAAF0Uk5TAEDm2GYAAAABYktHRACIBR1IAAAACXBIWXMAAAsTAAALEwEAmpwYAAAAB3RJTUUH6QQdDRkSyg2CawAAAc9JREFUaN7tmWuywyAIhRk24P5325ne2zR4DmiicTIN/GnzKPIhHE0qkpaWlpaWlpaWlvarVj72TPov/xMzUAx/eWDtG/7ydH6bAFX9fP6ZuWROwA2zzYQwaaSC/KUe0vCbCPbAei1/Nf6kkQrjL01+Xc5fjz5npML5i8O/iwRb4lJ+cD1lpLbiEX7h/O8vmA3dh1tVjkBxiXUFQ9b8tACV6gWRJ9Lv9akWvzj8Xq/YxJHmEv962A+RFyGHs/iFHeDPAN/Mh9qa5vyBHvwTYsTQL8bTOX5t80PhC61lwKq1TVnUzEvkxN40xI+z4vNbB5iRHn6J+R0lJNIgJqBxfojWRl6LkMNP5WKAX7nKOHJxmp/NVg+/ePz+2t7DL7FqOpI7oH91CNASvfzQGyG/xvxUEOLtYptfh/m1jz/uf+nkZ4IQbZdb/BpodcTPFZy3VHgzLjptfvX49ciOkG4unBbE0nPWCr50a7P/4/0/6XD11ZDuALdpR345w093X/gc26t/4Rrh6V97/4cJkG/1Dz/MhA62kN3sHnYJTU57Rr1Xnzv+Va9ern1bcvTd78Z/ObYcmvSVCZAVs69ci+6QAFlR/DfD3ydgYePfhp7+//MChhMlFDtaV+oAAAAASUVORK5CYII=;" vertex="1" parent="Wm3cj4wfwM-NdLzFGAPV-49">
          <mxGeometry x="62.15999999999997" y="2" width="137.84" height="20" as="geometry" />
        </mxCell>
        <mxCell id="Wm3cj4wfwM-NdLzFGAPV-48" value="Source:" style="text;html=1;align=center;verticalAlign=middle;whiteSpace=wrap;rounded=0;fontColor=#999999;" vertex="1" parent="Wm3cj4wfwM-NdLzFGAPV-49">
          <mxGeometry width="60" height="30" as="geometry" />
        </mxCell>
        <mxCell id="Wm3cj4wfwM-NdLzFGAPV-50" value="" style="group" vertex="1" connectable="0" parent="1">
          <mxGeometry x="240" y="1000" width="200" height="30" as="geometry" />
        </mxCell>
        <mxCell id="Wm3cj4wfwM-NdLzFGAPV-51" value="" style="shape=image;verticalLabelPosition=bottom;labelBackgroundColor=default;verticalAlign=top;aspect=fixed;imageAspect=0;image=data:image/png,iVBORw0KGgoAAAANSUhEUgAAAP8AAAAlCAMAAAC6c8+xAAAMJ3pUWHRSYXcgcHJvZmlsZSB0eXBlIGV4aWYAAHjarZhZklvJDUX/cxVeQo4Acjk5ICO8Ay/fByypWt2t8IftoopkPT7mdHEHKPm//vnSP/ipU3vqQ02mSOanzz7r4o3lP378x+vM+cX7zm/5ca1831XSnz74+a7w+OV6HT8+rVxpvLavP7/nazFQ+2Ug+X4tv7texl+ut+/p659WZPI9c/31eil5519/7I/f96499pzi7r66cD7yY1M/t/h5x40M0tvna8JD+R28189j8rC88kml55sPM+58yiy1tPxKL7es8op/Xk85LLFXr8prrae2zzVrWmc9LbfSemq99fKqttlus1bbqd4aV+v3Wspn3vmZ7hRj4lu4sxYGK3zj80g/3/yvj98O9N75OmL7QF++AK41YChxii2euQtAyvtZR+NzwD8ff/0BWAbp3BXHbGxw5f01xB7lj9pq6QN048bBa//6st4fA3BEzD1YTGkgkKW0UaRkrVVL4RwNfBYrry31uoGgjFEvq6y9NQEcqzE339HyubeO+nUZCgHEaNIUaGZbYNX76JK6dqOG1mijjzFk6LAxx5ImXYaIqAQXlzbtOlRU1XTqsmbdhompmU1badbZ4OqYMnXanHMtJl2MvPj2ssWFXXfbfY8tW7ftudehfE4/48jRY2eelW697fY7rly9duddXpxS8u7DxdXNp69Hqb32+htPnj57861v1D6opj9h9nfk/jNq5QdqAJY+mHVu+okal1V/DlFCTkZgBmK1FxDXQICCroFZttJ7DeRSYJZnhRWjssoR4NwSiIFg91LHK9/Y/YHc33BL8P6/xa3+ilwK6P4fyKWA7jfI/R2336B2Q99P8DAjbEHDONTcoB83uLGcMf26bkG5tOQzS5tl5l3rHM0e4xvCxH2uT7qv8V4KW3gbRPer9zlcGYhZU45ucOPSfBbahWZxqJl93AAk77L3nr2yQNntLEvYze5appT5ujNLvJOQMW1dXjm2L2N3ePny11Djd0OlZf/VUJ1/Of/ymv564cfrQIDBsOnY2w+z1nO3soize8U3gMM4x+rgI5x6TdeHKcUhb5oNBZmDGmktnyMXjtxGbRqrrK3PzGrm7JYPOOt6TInb5a8Vfd78/ZVq8Dm8TCtC+RTqgAqdnpVdY1/jTqrcyjVKRFKbD9h9i2xBs6oOyqhKCWZAlLLP8U5NAtrUU+fqnUoYw9CISkXd2uXYOxRkeWto0bWYv/nkWLyfg2dBJk4aPnt7R28fss0OBYIATKqeIuUGSEfJ1oTQHDjkgpexOFYdFpzz1dP1PQSZCdpR3lcv8Ync9p7AHsCg7jjH5Q77fS8KQt9ufUA8qAw3lKW0if8wwnnxdWpzPtuNZbE4cVATTud1/jwZruWXT/e2FBdlU2gWNBGjpDt/8b3GADjGWza285anFR5RZs9UhTeAFULEk1P8WSxUxOVRJmC8d4gfZXldlp+zsmvtyr3nsU+E8PraqMcePlhT89R4FmLJ9xR3juOX0e95eoDh6VxHFvDndc+9x9yiaHO5CypqO0YgSLLmmVU6oeau2EZe/XOkgz1fRpN7KdrOcWwk8TjbhEeL8/Lad+hUvnAvDfTJFh+CcZNs92yWjhrJO47EFcbZvXmhkhfVTfVQi4+VLUZlIyItIl2itF6mFofYRW1RNeSrHKWWVonBIxwd9DU4zHqstGe2BmthCzvKbUDG0CNWeAu1sga6Nn3ct+9e7HtAVONoAa0YwMJENFcmy1rXW0VvBZuFRWXexGDUyB1IrqrvW1cfFwPaIH3rQJbdNmombrdw0Pha7lLQZBQJG/HYwNo3QXEII758LLLApgpanoDOt7IecGlsDA1km9jX7qdUYf/rGvhzs6MtdQO/bOZlO4364WQh6ugt4G9BDKT9zQv/sOZDgMXQNqp9rs7K9CKlOMJopJGzFc4vdF6t3cczMyk5FOqNcnsdwSCOTXTjCQPGXbiEU7PrTyrlvNdLwvk0CS5fq1QNhy7gDQts3YWqzaXwANvYh/IGyex9urHQGhO+BvkpoBTFd0CjUjRItEAvVoouzIKLjrun1JMjuQAPTyyCM+WDpqc9BKAg/RhSwnwjHVDr9TLVMZ4zFYwSGjzMsJfT2XqQSA3V5M43C4aHTmzu2YaI9sbW2vRAQdE1BZS5rkaemPPWjHmQU27Yf6nziJMpojRxxhVSg+3ERrZp2vesydlQZyuLzbUNq9qkBcw0P9YXitBIl9Q7+woHeSHmGDIkcKg/oHpmIDIBKage3+Xx+fXTIR2AW8xGkRNPAJEiqCWUQpSuzrF0ifIlntBcjJ2EwINBU6gOw7P5faioGwc0Kia/gopjA2y92sI1CERx6CoTqXlKSNGtTlPjtBzaxqQkKfeLe3EolLlVyplt1nkHnH3tjnDbdvBbsp+GauMlgMiKZ2LDZd8gBqU6J/fa5ZOzMyDkMBiEkTj3SF90PVd4w5R5Kf4jY0TS2RAiFf9yi7XIXepwiJMYeyx45CuHb81X7QBhLhZx6ctgO/ZhOHaYNCdlSVC6clH0gj3DCHbDN4UDy2iWYwgn1/2W9E8VttN81wdFcCVO3CY2Qq6AtPZaxopbyFjNlP6K9WbUme5jkQ8OhWKzHBwBD/QT2bpCVYFI3sayjTaXhLZSK7rR0Dxx0WKLXgebCYlCMWNwmDiQGeS3X+QKpcqopDgjbMIZqtAgbY8QTkRF/vlaIwdTdqCzVRY9I4JBoe9QfnZwb8GDJl0wPGRD7RLJiQ36EpPWFf4MxHCLxPOwDoAn/uGcAA4VPmdVXjSz9pQoiGJQTY9cPRq5oQghAtRoFrm376Cdkim9GcvmBEpGwtuegG7Bwf7mudjXov4n/kg+RXsJy6IJd7ttxW6CRmMdkHudAAshRwmth3c1eI6j6NyUIkRA+7n/XQqHen8YUwLC5aQ7tAXSWagaAuo47iew+BuHbgCSkNIJvdlCK+Ea+nhfixagcLD3pk13oVT6ZCGuHd/zQ7mRhmhP/EwK+wGpbyTh4OvR+jMXzkCBndI2uKGWIwkRDuGk98Gj7kKbVCk7o0WsRA/C4vmEdfqaIxTcZEhCatQ+GocPwrVIromcVCuGsiLM0EJRnog6/kPY55WmiAGUvDD7fRXLhyBSYRf+SlHSXdDIFB8cNtFheYZOcJPJ0PcKcB3albDGIBA86hG194jEI+hvoV7Ijpk0ya2skzYLwD7GQmtFaBzWHyvNHiRitd3wFEM2V4OEOVo3AuWiIDQ2AGZOk34QtsjQqAN2sR8IlIpiEWGj03OOSDfNDUYGLchUE+EFWLqrl/ukgh8cncQlTWxjRGb3+F8DyEcsGfJxK9mFGooLFKNAe1InmkTuubd9AhQ+dC/z6dWaOBdU28FjwBZVmkayA6kcUuYe3RltcCdtoYsUCVaOHOsOxSPzaXRUKPOsyYFhIbZmeEaryD4kprarwuOPlEeeqWOF3ztOxdlT0hwMhKGB7sU4tl5TZ4aGiE0AW6PEgfay5VDG9AMlRBCP3DSoLQKA38CGUwhaQuxy2DlZ1tNz6pnEexY8IJlvRIWSwBLYHfmdxnNxBcfEUQiF2JOGBXfSRItdm4+MvyfsE1VV8ziPs/Yi87dOJqcpoUXAsUCCtve+CLxYDYHs4QyXoqSXeHNnIbnshOFUjIAoUSHG6T1oeBYniYfQdGGES+qY6JlCXmpkhwkhRag/ohyCOMEg1axP5dNGXGLjOyRU/qKsZozcrHJQp7yBGYMsrWAAWh/nwVfIpLQ3VK4lb4jHptWm4XcI7dETcA4XJwtmYGKP7dCkYeGl1kuMemRN5KogFyF3KHVfnBFtDdVAp3nthExYX4ipL4s4jWvSNNDokhk2UkuoirdGJP3za/rlwl50v2xqmIAa3q8REDqdx6WBVf30/JAkuiEqDMJhk6gykfzh/eHGoY20h5e90BIT37GxGX0xzCQv4kESdcMvbQE0pF34DDKZjoz7aBNT/qx69Zt/v+T/8EoL9TKrp+v3kwichxi86Pzpti6Rb3QSlhBYaKlg1ztxPAuqNba1j9A0NSCAF0KJIbAS1xIci774wvJ5meai6tCVESb6xRcJaDw+XeOM/3yh7cI843/MkUTKf0eg0J5QiwoZRwjN2ECulMuLkFm1xv/xKDmYJvbOnNO/AWzHIrlNDlIWAAAAAXNSR0IB2cksfwAAAARnQU1BAACxjwv8YQUAAAAgY0hSTQAAeiYAAICEAAD6AAAAgOgAAHUwAADqYAAAOpgAABdwnLpRPAAAArJQTFRFAAAAAAAATGlxAAAAAAAAAAAAAAAAAAAAAAAAAAAAAAAAAAAAAAAAAHi/AAAAAHnBAIDIAHrCAAAAAHrBAAAAAAAAAAAAAAAAAAAAAAAAAAAAAAAAAAAAAAAAAAAAAAAAAAAAAAAAAAAAAAAAAAAAAAAAAAAAAAAAAAAAAAAAAAAAAHnBAAAAAAAAAHrBAAAAAAAAAAAAAAAAAA0aAAAAAAAAAAAAAAAAAAAAAHnBAAAAAAAAAAAAAAAAAHnBAAAAAAAAAAAAAAAAAHjDAAAAAAAAAAAAAAAAAAAAAAAAAAAAAAAAAAAAAAAAAAAAAAAAAHnBAAAAAAAAAAAAAAAAAAAAAAAAAAAAAAAAAAAAAAAAAAAAAAAAAAAAAAAAAAAAAAAAAAAAAAAAAAAAAAAAAAAAAAAAAAAAAAAAAAAAAAAAAAAAAAAAAAAAAAAAAAAAAAAAAAAAAAAAAAAAAAAAAAAAAAAAAAAAAAAAAAAAAAAAAAAAAAAAAAAAAAAAAAAAAAAAAAAAAAAAAAAAAAAAAAAAAAAAAAAAAAAAAAAAAAAAAAAAAAAAAAAAAAAAAAAAAFD/AAAAAAAAAAAAAAAAAAAAAAAAAAAAAHvBAAAAAAAAAAAAAAAAAAAAAAAAAHnBAAAAAHa/AAAAAAAAAAAAAHrNAAAAAAAAAAAAAAAAAAAAAAAAAHrBAAAAAAAAAAAAAAAAAAAAAHnBAHjCAHnBAHnDAHa7AHnBAHy9AHnBAAAAAAAAAHnBAHnBAHnBAHjBAHjBAHnBAHa/AHnBAHjBAHnBAHnBAHjCAHnBAHjCAHnBAHnBAHjDAHnCAHjBAHjBAHnBAHnBAHjBAHjBAHnBAHjCAHnCAHrBAHnBAHnBAHnCAHnCAHnBAHrCAHnCAHnCAHfDAHe/AHnBAHnBAAAAAHnBBYQ/vAAAAAF0Uk5TAEDm2GYAAAABYktHRACIBR1IAAAACXBIWXMAAAsTAAALEwEAmpwYAAAAB3RJTUUH6QQdDRkSyg2CawAAAc9JREFUaN7tmWuywyAIhRk24P5325ne2zR4DmiicTIN/GnzKPIhHE0qkpaWlpaWlpaWlvarVj72TPov/xMzUAx/eWDtG/7ydH6bAFX9fP6ZuWROwA2zzYQwaaSC/KUe0vCbCPbAei1/Nf6kkQrjL01+Xc5fjz5npML5i8O/iwRb4lJ+cD1lpLbiEX7h/O8vmA3dh1tVjkBxiXUFQ9b8tACV6gWRJ9Lv9akWvzj8Xq/YxJHmEv962A+RFyGHs/iFHeDPAN/Mh9qa5vyBHvwTYsTQL8bTOX5t80PhC61lwKq1TVnUzEvkxN40xI+z4vNbB5iRHn6J+R0lJNIgJqBxfojWRl6LkMNP5WKAX7nKOHJxmp/NVg+/ePz+2t7DL7FqOpI7oH91CNASvfzQGyG/xvxUEOLtYptfh/m1jz/uf+nkZ4IQbZdb/BpodcTPFZy3VHgzLjptfvX49ciOkG4unBbE0nPWCr50a7P/4/0/6XD11ZDuALdpR345w093X/gc26t/4Rrh6V97/4cJkG/1Dz/MhA62kN3sHnYJTU57Rr1Xnzv+Va9ern1bcvTd78Z/ObYcmvSVCZAVs69ci+6QAFlR/DfD3ydgYePfhp7+//MChhMlFDtaV+oAAAAASUVORK5CYII=;" vertex="1" parent="Wm3cj4wfwM-NdLzFGAPV-50">
          <mxGeometry x="62.15999999999997" y="2" width="137.84" height="20" as="geometry" />
        </mxCell>
        <mxCell id="Wm3cj4wfwM-NdLzFGAPV-52" value="Source:" style="text;html=1;align=center;verticalAlign=middle;whiteSpace=wrap;rounded=0;fontColor=#999999;" vertex="1" parent="Wm3cj4wfwM-NdLzFGAPV-50">
          <mxGeometry width="60" height="30" as="geometry" />
        </mxCell>
        <mxCell id="Wm3cj4wfwM-NdLzFGAPV-53" value="" style="group" vertex="1" connectable="0" parent="1">
          <mxGeometry x="240" y="490" width="200" height="30" as="geometry" />
        </mxCell>
        <mxCell id="Wm3cj4wfwM-NdLzFGAPV-54" value="" style="shape=image;verticalLabelPosition=bottom;labelBackgroundColor=default;verticalAlign=top;aspect=fixed;imageAspect=0;image=data:image/png,iVBORw0KGgoAAAANSUhEUgAAAP8AAAAlCAMAAAC6c8+xAAAMJ3pUWHRSYXcgcHJvZmlsZSB0eXBlIGV4aWYAAHjarZhZklvJDUX/cxVeQo4Acjk5ICO8Ay/fByypWt2t8IftoopkPT7mdHEHKPm//vnSP/ipU3vqQ02mSOanzz7r4o3lP378x+vM+cX7zm/5ca1831XSnz74+a7w+OV6HT8+rVxpvLavP7/nazFQ+2Ug+X4tv7texl+ut+/p659WZPI9c/31eil5519/7I/f96499pzi7r66cD7yY1M/t/h5x40M0tvna8JD+R28189j8rC88kml55sPM+58yiy1tPxKL7es8op/Xk85LLFXr8prrae2zzVrWmc9LbfSemq99fKqttlus1bbqd4aV+v3Wspn3vmZ7hRj4lu4sxYGK3zj80g/3/yvj98O9N75OmL7QF++AK41YChxii2euQtAyvtZR+NzwD8ff/0BWAbp3BXHbGxw5f01xB7lj9pq6QN048bBa//6st4fA3BEzD1YTGkgkKW0UaRkrVVL4RwNfBYrry31uoGgjFEvq6y9NQEcqzE339HyubeO+nUZCgHEaNIUaGZbYNX76JK6dqOG1mijjzFk6LAxx5ImXYaIqAQXlzbtOlRU1XTqsmbdhompmU1badbZ4OqYMnXanHMtJl2MvPj2ssWFXXfbfY8tW7ftudehfE4/48jRY2eelW697fY7rly9duddXpxS8u7DxdXNp69Hqb32+htPnj57861v1D6opj9h9nfk/jNq5QdqAJY+mHVu+okal1V/DlFCTkZgBmK1FxDXQICCroFZttJ7DeRSYJZnhRWjssoR4NwSiIFg91LHK9/Y/YHc33BL8P6/xa3+ilwK6P4fyKWA7jfI/R2336B2Q99P8DAjbEHDONTcoB83uLGcMf26bkG5tOQzS5tl5l3rHM0e4xvCxH2uT7qv8V4KW3gbRPer9zlcGYhZU45ucOPSfBbahWZxqJl93AAk77L3nr2yQNntLEvYze5appT5ujNLvJOQMW1dXjm2L2N3ePny11Djd0OlZf/VUJ1/Of/ymv564cfrQIDBsOnY2w+z1nO3soize8U3gMM4x+rgI5x6TdeHKcUhb5oNBZmDGmktnyMXjtxGbRqrrK3PzGrm7JYPOOt6TInb5a8Vfd78/ZVq8Dm8TCtC+RTqgAqdnpVdY1/jTqrcyjVKRFKbD9h9i2xBs6oOyqhKCWZAlLLP8U5NAtrUU+fqnUoYw9CISkXd2uXYOxRkeWto0bWYv/nkWLyfg2dBJk4aPnt7R28fss0OBYIATKqeIuUGSEfJ1oTQHDjkgpexOFYdFpzz1dP1PQSZCdpR3lcv8Ync9p7AHsCg7jjH5Q77fS8KQt9ufUA8qAw3lKW0if8wwnnxdWpzPtuNZbE4cVATTud1/jwZruWXT/e2FBdlU2gWNBGjpDt/8b3GADjGWza285anFR5RZs9UhTeAFULEk1P8WSxUxOVRJmC8d4gfZXldlp+zsmvtyr3nsU+E8PraqMcePlhT89R4FmLJ9xR3juOX0e95eoDh6VxHFvDndc+9x9yiaHO5CypqO0YgSLLmmVU6oeau2EZe/XOkgz1fRpN7KdrOcWwk8TjbhEeL8/Lad+hUvnAvDfTJFh+CcZNs92yWjhrJO47EFcbZvXmhkhfVTfVQi4+VLUZlIyItIl2itF6mFofYRW1RNeSrHKWWVonBIxwd9DU4zHqstGe2BmthCzvKbUDG0CNWeAu1sga6Nn3ct+9e7HtAVONoAa0YwMJENFcmy1rXW0VvBZuFRWXexGDUyB1IrqrvW1cfFwPaIH3rQJbdNmombrdw0Pha7lLQZBQJG/HYwNo3QXEII758LLLApgpanoDOt7IecGlsDA1km9jX7qdUYf/rGvhzs6MtdQO/bOZlO4364WQh6ugt4G9BDKT9zQv/sOZDgMXQNqp9rs7K9CKlOMJopJGzFc4vdF6t3cczMyk5FOqNcnsdwSCOTXTjCQPGXbiEU7PrTyrlvNdLwvk0CS5fq1QNhy7gDQts3YWqzaXwANvYh/IGyex9urHQGhO+BvkpoBTFd0CjUjRItEAvVoouzIKLjrun1JMjuQAPTyyCM+WDpqc9BKAg/RhSwnwjHVDr9TLVMZ4zFYwSGjzMsJfT2XqQSA3V5M43C4aHTmzu2YaI9sbW2vRAQdE1BZS5rkaemPPWjHmQU27Yf6nziJMpojRxxhVSg+3ERrZp2vesydlQZyuLzbUNq9qkBcw0P9YXitBIl9Q7+woHeSHmGDIkcKg/oHpmIDIBKage3+Xx+fXTIR2AW8xGkRNPAJEiqCWUQpSuzrF0ifIlntBcjJ2EwINBU6gOw7P5faioGwc0Kia/gopjA2y92sI1CERx6CoTqXlKSNGtTlPjtBzaxqQkKfeLe3EolLlVyplt1nkHnH3tjnDbdvBbsp+GauMlgMiKZ2LDZd8gBqU6J/fa5ZOzMyDkMBiEkTj3SF90PVd4w5R5Kf4jY0TS2RAiFf9yi7XIXepwiJMYeyx45CuHb81X7QBhLhZx6ctgO/ZhOHaYNCdlSVC6clH0gj3DCHbDN4UDy2iWYwgn1/2W9E8VttN81wdFcCVO3CY2Qq6AtPZaxopbyFjNlP6K9WbUme5jkQ8OhWKzHBwBD/QT2bpCVYFI3sayjTaXhLZSK7rR0Dxx0WKLXgebCYlCMWNwmDiQGeS3X+QKpcqopDgjbMIZqtAgbY8QTkRF/vlaIwdTdqCzVRY9I4JBoe9QfnZwb8GDJl0wPGRD7RLJiQ36EpPWFf4MxHCLxPOwDoAn/uGcAA4VPmdVXjSz9pQoiGJQTY9cPRq5oQghAtRoFrm376Cdkim9GcvmBEpGwtuegG7Bwf7mudjXov4n/kg+RXsJy6IJd7ttxW6CRmMdkHudAAshRwmth3c1eI6j6NyUIkRA+7n/XQqHen8YUwLC5aQ7tAXSWagaAuo47iew+BuHbgCSkNIJvdlCK+Ea+nhfixagcLD3pk13oVT6ZCGuHd/zQ7mRhmhP/EwK+wGpbyTh4OvR+jMXzkCBndI2uKGWIwkRDuGk98Gj7kKbVCk7o0WsRA/C4vmEdfqaIxTcZEhCatQ+GocPwrVIromcVCuGsiLM0EJRnog6/kPY55WmiAGUvDD7fRXLhyBSYRf+SlHSXdDIFB8cNtFheYZOcJPJ0PcKcB3albDGIBA86hG194jEI+hvoV7Ijpk0ya2skzYLwD7GQmtFaBzWHyvNHiRitd3wFEM2V4OEOVo3AuWiIDQ2AGZOk34QtsjQqAN2sR8IlIpiEWGj03OOSDfNDUYGLchUE+EFWLqrl/ukgh8cncQlTWxjRGb3+F8DyEcsGfJxK9mFGooLFKNAe1InmkTuubd9AhQ+dC/z6dWaOBdU28FjwBZVmkayA6kcUuYe3RltcCdtoYsUCVaOHOsOxSPzaXRUKPOsyYFhIbZmeEaryD4kprarwuOPlEeeqWOF3ztOxdlT0hwMhKGB7sU4tl5TZ4aGiE0AW6PEgfay5VDG9AMlRBCP3DSoLQKA38CGUwhaQuxy2DlZ1tNz6pnEexY8IJlvRIWSwBLYHfmdxnNxBcfEUQiF2JOGBXfSRItdm4+MvyfsE1VV8ziPs/Yi87dOJqcpoUXAsUCCtve+CLxYDYHs4QyXoqSXeHNnIbnshOFUjIAoUSHG6T1oeBYniYfQdGGES+qY6JlCXmpkhwkhRag/ohyCOMEg1axP5dNGXGLjOyRU/qKsZozcrHJQp7yBGYMsrWAAWh/nwVfIpLQ3VK4lb4jHptWm4XcI7dETcA4XJwtmYGKP7dCkYeGl1kuMemRN5KogFyF3KHVfnBFtDdVAp3nthExYX4ipL4s4jWvSNNDokhk2UkuoirdGJP3za/rlwl50v2xqmIAa3q8REDqdx6WBVf30/JAkuiEqDMJhk6gykfzh/eHGoY20h5e90BIT37GxGX0xzCQv4kESdcMvbQE0pF34DDKZjoz7aBNT/qx69Zt/v+T/8EoL9TKrp+v3kwichxi86Pzpti6Rb3QSlhBYaKlg1ztxPAuqNba1j9A0NSCAF0KJIbAS1xIci774wvJ5meai6tCVESb6xRcJaDw+XeOM/3yh7cI843/MkUTKf0eg0J5QiwoZRwjN2ECulMuLkFm1xv/xKDmYJvbOnNO/AWzHIrlNDlIWAAAAAXNSR0IB2cksfwAAAARnQU1BAACxjwv8YQUAAAAgY0hSTQAAeiYAAICEAAD6AAAAgOgAAHUwAADqYAAAOpgAABdwnLpRPAAAArJQTFRFAAAAAAAATGlxAAAAAAAAAAAAAAAAAAAAAAAAAAAAAAAAAAAAAAAAAHi/AAAAAHnBAIDIAHrCAAAAAHrBAAAAAAAAAAAAAAAAAAAAAAAAAAAAAAAAAAAAAAAAAAAAAAAAAAAAAAAAAAAAAAAAAAAAAAAAAAAAAAAAAAAAAAAAAAAAAHnBAAAAAAAAAHrBAAAAAAAAAAAAAAAAAA0aAAAAAAAAAAAAAAAAAAAAAHnBAAAAAAAAAAAAAAAAAHnBAAAAAAAAAAAAAAAAAHjDAAAAAAAAAAAAAAAAAAAAAAAAAAAAAAAAAAAAAAAAAAAAAAAAAHnBAAAAAAAAAAAAAAAAAAAAAAAAAAAAAAAAAAAAAAAAAAAAAAAAAAAAAAAAAAAAAAAAAAAAAAAAAAAAAAAAAAAAAAAAAAAAAAAAAAAAAAAAAAAAAAAAAAAAAAAAAAAAAAAAAAAAAAAAAAAAAAAAAAAAAAAAAAAAAAAAAAAAAAAAAAAAAAAAAAAAAAAAAAAAAAAAAAAAAAAAAAAAAAAAAAAAAAAAAAAAAAAAAAAAAAAAAAAAAAAAAAAAAAAAAAAAAFD/AAAAAAAAAAAAAAAAAAAAAAAAAAAAAHvBAAAAAAAAAAAAAAAAAAAAAAAAAHnBAAAAAHa/AAAAAAAAAAAAAHrNAAAAAAAAAAAAAAAAAAAAAAAAAHrBAAAAAAAAAAAAAAAAAAAAAHnBAHjCAHnBAHnDAHa7AHnBAHy9AHnBAAAAAAAAAHnBAHnBAHnBAHjBAHjBAHnBAHa/AHnBAHjBAHnBAHnBAHjCAHnBAHjCAHnBAHnBAHjDAHnCAHjBAHjBAHnBAHnBAHjBAHjBAHnBAHjCAHnCAHrBAHnBAHnBAHnCAHnCAHnBAHrCAHnCAHnCAHfDAHe/AHnBAHnBAAAAAHnBBYQ/vAAAAAF0Uk5TAEDm2GYAAAABYktHRACIBR1IAAAACXBIWXMAAAsTAAALEwEAmpwYAAAAB3RJTUUH6QQdDRkSyg2CawAAAc9JREFUaN7tmWuywyAIhRk24P5325ne2zR4DmiicTIN/GnzKPIhHE0qkpaWlpaWlpaWlvarVj72TPov/xMzUAx/eWDtG/7ydH6bAFX9fP6ZuWROwA2zzYQwaaSC/KUe0vCbCPbAei1/Nf6kkQrjL01+Xc5fjz5npML5i8O/iwRb4lJ+cD1lpLbiEX7h/O8vmA3dh1tVjkBxiXUFQ9b8tACV6gWRJ9Lv9akWvzj8Xq/YxJHmEv962A+RFyGHs/iFHeDPAN/Mh9qa5vyBHvwTYsTQL8bTOX5t80PhC61lwKq1TVnUzEvkxN40xI+z4vNbB5iRHn6J+R0lJNIgJqBxfojWRl6LkMNP5WKAX7nKOHJxmp/NVg+/ePz+2t7DL7FqOpI7oH91CNASvfzQGyG/xvxUEOLtYptfh/m1jz/uf+nkZ4IQbZdb/BpodcTPFZy3VHgzLjptfvX49ciOkG4unBbE0nPWCr50a7P/4/0/6XD11ZDuALdpR345w093X/gc26t/4Rrh6V97/4cJkG/1Dz/MhA62kN3sHnYJTU57Rr1Xnzv+Va9ern1bcvTd78Z/ObYcmvSVCZAVs69ci+6QAFlR/DfD3ydgYePfhp7+//MChhMlFDtaV+oAAAAASUVORK5CYII=;" vertex="1" parent="Wm3cj4wfwM-NdLzFGAPV-53">
          <mxGeometry x="62.15999999999997" y="2" width="137.84" height="20" as="geometry" />
        </mxCell>
        <mxCell id="Wm3cj4wfwM-NdLzFGAPV-55" value="Source:" style="text;html=1;align=center;verticalAlign=middle;whiteSpace=wrap;rounded=0;fontColor=#999999;" vertex="1" parent="Wm3cj4wfwM-NdLzFGAPV-53">
          <mxGeometry width="60" height="30" as="geometry" />
        </mxCell>
      </root>
    </mxGraphModel>
  </diagram>
</mxfile>
